STARTFONT 2.1
FONT -Bitstream-Terminal-Bold-R-Narrow--50-360-100-100-C-180-ISO8859-1
SIZE 36 100 100
FONTBOUNDINGBOX 18 50 0 -10

STARTPROPERTIES 25
FOUNDRY "Bitstream"
FAMILY_NAME "Terminal"
WEIGHT_NAME "Bold"
SLANT "R"
SETWIDTH_NAME "Narrow"
ADD_STYLE_NAME ""
PIXEL_SIZE 50
POINT_SIZE 360
RESOLUTION_X 100
RESOLUTION_Y 100
SPACING "C"
AVERAGE_WIDTH 180
CHARSET_REGISTRY "ISO8859"
CHARSET_ENCODING "1"
CAP_HEIGHT 30
X_HEIGHT 24
COPYRIGHT "Copyright (c) 1991 Digital Equipment Corporation. All Rights Reserved."
_DEC_PRODUCTINFO "DECterm Fonts V2.2, 11-Nov-1991"
FIGURE_WIDTH 18
FULL_NAME "Terminal Bold Narrow"
WEIGHT 10
QUAD_WIDTH 18
DEFAULT_CHAR 159
FONT_DESCENT 10
FONT_ASCENT 40
ENDPROPERTIES

CHARS 195

STARTCHAR space
ENCODING 32
SWIDTH 720 0
DWIDTH 18 0
BBX 18 50 0 -10
BITMAP
000000
000000
000000
000000
000000
000000
000000
000000
000000
000000
000000
000000
000000
000000
000000
000000
000000
000000
000000
000000
000000
000000
000000
000000
000000
000000
000000
000000
000000
000000
000000
000000
000000
000000
000000
000000
000000
000000
000000
000000
000000
000000
000000
000000
000000
000000
000000
000000
000000
000000
ENDCHAR

STARTCHAR exclam
ENCODING 33
SWIDTH 720 0
DWIDTH 18 0
BBX 18 50 0 -10
BITMAP
000000
000000
000000
000000
000000
000000
000000
000000
000000
000000
03E000
03E000
03E000
03E000
03E000
03E000
03E000
03E000
03E000
03E000
03E000
03E000
03E000
03E000
03E000
03E000
03E000
03E000
03E000
03E000
000000
000000
000000
000000
03E000
03E000
07F000
07F000
03E000
03E000
000000
000000
000000
000000
000000
000000
000000
000000
000000
000000
ENDCHAR

STARTCHAR quotedbl
ENCODING 34
SWIDTH 720 0
DWIDTH 18 0
BBX 18 50 0 -10
BITMAP
000000
000000
000000
000000
000000
000000
000000
000000
0E3800
0E3800
0E3800
0E3800
0E3800
0E3800
0E3800
0E3800
0E3800
0E3800
0E3800
0E3800
0E3800
0E3800
000000
000000
000000
000000
000000
000000
000000
000000
000000
000000
000000
000000
000000
000000
000000
000000
000000
000000
000000
000000
000000
000000
000000
000000
000000
000000
000000
000000
ENDCHAR

STARTCHAR numbersign
ENCODING 35
SWIDTH 720 0
DWIDTH 18 0
BBX 18 50 0 -10
BITMAP
000000
000000
000000
000000
000000
000000
000000
000000
000000
000000
0E3800
0E3800
0E3800
0E3800
0E3800
0E3800
0E3800
0E3800
0E3800
0E3800
7FFF00
7FFF00
7FFF00
7FFF00
0E3800
0E3800
0E3800
0E3800
0E3800
0E3800
7FFF00
7FFF00
7FFF00
7FFF00
0E3800
0E3800
0E3800
0E3800
0E3800
0E3800
0E3800
0E3800
0E3800
0E3800
0E3800
0E3800
000000
000000
000000
000000
ENDCHAR

STARTCHAR dollar
ENCODING 36
SWIDTH 720 0
DWIDTH 18 0
BBX 18 50 0 -10
BITMAP
000000
000000
000000
000000
000000
000000
000000
000000
03C000
03C000
03C000
03C000
03C000
03C000
0FF700
0FF700
3FFF00
3C3F00
781F00
781F00
780F00
780F00
7F0000
7F0000
3FF800
3FF800
0FFE00
0FFE00
00FF00
00FF00
000F00
000F00
780F00
780F00
781F00
781F00
7FFE00
7FFE00
77F800
77F800
03C000
03C000
03C000
03C000
03C000
03C000
000000
000000
000000
000000
ENDCHAR

STARTCHAR percent
ENCODING 37
SWIDTH 720 0
DWIDTH 18 0
BBX 18 50 0 -10
BITMAP
000000
000000
000000
000000
000000
000000
000000
000000
000000
000000
3F8000
3F8000
F1E000
F1E000
F1E000
F1E000
F1E000
F1E000
F1E000
F1E000
3F8700
3F8700
001F00
001F00
00F800
00F800
03C000
03C000
0F0000
0F0000
7CFE00
7CFE00
73C780
73C780
03C780
03C780
03C780
03C780
03C780
03C780
00FE00
00FE00
000000
000000
000000
000000
000000
000000
000000
000000
ENDCHAR

STARTCHAR ampersand
ENCODING 38
SWIDTH 720 0
DWIDTH 18 0
BBX 18 50 0 -10
BITMAP
000000
000000
000000
000000
000000
000000
000000
000000
000000
000000
000000
000000
07B000
07B000
0FF000
0FF000
1C7000
1C7000
1C3000
1C3000
1E0000
1E0000
0F0000
0F0000
078000
078000
1FC300
1FC300
3DE700
3DE700
78FF00
78FF00
787C00
787C00
7C3C00
7C3C00
3FFF00
3FFF00
0FCF00
0FCF00
000000
000000
000000
000000
000000
000000
000000
000000
000000
000000
ENDCHAR

STARTCHAR quoteright
ENCODING 39
SWIDTH 720 0
DWIDTH 18 0
BBX 18 50 0 -10
BITMAP
000000
000000
000000
000000
000000
000000
000000
000000
00F800
00F800
01F000
01F000
01E000
01E000
03C000
03C000
038000
038000
070000
070000
000000
000000
000000
000000
000000
000000
000000
000000
000000
000000
000000
000000
000000
000000
000000
000000
000000
000000
000000
000000
000000
000000
000000
000000
000000
000000
000000
000000
000000
000000
ENDCHAR

STARTCHAR parenleft
ENCODING 40
SWIDTH 720 0
DWIDTH 18 0
BBX 18 50 0 -10
BITMAP
000000
000000
000000
000000
000000
000000
000000
000000
003800
003800
00F000
00F000
03E000
03E000
03C000
03C000
078000
078000
078000
078000
0F0000
0F0000
0F0000
0F0000
0F0000
0F0000
0F0000
0F0000
0F0000
0F0000
0F0000
0F0000
0F0000
0F0000
078000
078000
078000
078000
03C000
03C000
03E000
03E000
00F000
00F000
003800
003800
000000
000000
000000
000000
ENDCHAR

STARTCHAR parenright
ENCODING 41
SWIDTH 720 0
DWIDTH 18 0
BBX 18 50 0 -10
BITMAP
000000
000000
000000
000000
000000
000000
000000
000000
0E0000
0E0000
078000
078000
03E000
03E000
01E000
01E000
00F000
00F000
00F000
00F000
007800
007800
007800
007800
007800
007800
007800
007800
007800
007800
007800
007800
007800
007800
00F000
00F000
00F000
00F000
01E000
01E000
03E000
03E000
078000
078000
0E0000
0E0000
000000
000000
000000
000000
ENDCHAR

STARTCHAR asterisk
ENCODING 42
SWIDTH 720 0
DWIDTH 18 0
BBX 18 50 0 -10
BITMAP
000000
000000
000000
000000
000000
000000
000000
000000
000000
000000
000000
000000
000000
000000
000000
000000
01C000
01C000
01C000
01C000
39CE00
39CE00
3DDE00
3DDE00
0FF800
0FF800
03E000
03E000
0F7800
0F7800
1E3C00
1E3C00
3C1E00
3C1E00
000000
000000
000000
000000
000000
000000
000000
000000
000000
000000
000000
000000
000000
000000
000000
000000
ENDCHAR

STARTCHAR plus
ENCODING 43
SWIDTH 720 0
DWIDTH 18 0
BBX 18 50 0 -10
BITMAP
000000
000000
000000
000000
000000
000000
000000
000000
000000
000000
000000
000000
000000
000000
000000
000000
000000
000000
03C000
03C000
03C000
03C000
03C000
03C000
03C000
03C000
7FFE00
7FFE00
7FFE00
7FFE00
03C000
03C000
03C000
03C000
03C000
03C000
03C000
03C000
000000
000000
000000
000000
000000
000000
000000
000000
000000
000000
000000
000000
ENDCHAR

STARTCHAR comma
ENCODING 44
SWIDTH 720 0
DWIDTH 18 0
BBX 18 50 0 -10
BITMAP
000000
000000
000000
000000
000000
000000
000000
000000
000000
000000
000000
000000
000000
000000
000000
000000
000000
000000
000000
000000
000000
000000
000000
000000
000000
000000
000000
000000
000000
000000
000000
000000
000000
000000
03E000
03E000
03E000
03E000
07C000
07C000
0F8000
0F8000
0E0000
0E0000
000000
000000
000000
000000
000000
000000
ENDCHAR

STARTCHAR minus
ENCODING 45
SWIDTH 720 0
DWIDTH 18 0
BBX 18 50 0 -10
BITMAP
000000
000000
000000
000000
000000
000000
000000
000000
000000
000000
000000
000000
000000
000000
000000
000000
000000
000000
000000
000000
000000
000000
000000
000000
000000
000000
3FFE00
3FFE00
3FFE00
3FFE00
000000
000000
000000
000000
000000
000000
000000
000000
000000
000000
000000
000000
000000
000000
000000
000000
000000
000000
000000
000000
ENDCHAR

STARTCHAR period
ENCODING 46
SWIDTH 720 0
DWIDTH 18 0
BBX 18 50 0 -10
BITMAP
000000
000000
000000
000000
000000
000000
000000
000000
000000
000000
000000
000000
000000
000000
000000
000000
000000
000000
000000
000000
000000
000000
000000
000000
000000
000000
000000
000000
000000
000000
000000
000000
000000
000000
03E000
03E000
07F000
07F000
03E000
03E000
000000
000000
000000
000000
000000
000000
000000
000000
000000
000000
ENDCHAR

STARTCHAR slash
ENCODING 47
SWIDTH 720 0
DWIDTH 18 0
BBX 18 50 0 -10
BITMAP
000000
000000
000000
000000
000000
000000
000000
000000
001F00
001F00
001E00
001E00
003E00
003E00
007C00
007C00
007C00
007C00
00F800
00F800
01F000
01F000
01E000
01E000
03E000
03E000
07C000
07C000
078000
078000
0F8000
0F8000
1F0000
1F0000
1E0000
1E0000
3E0000
3E0000
3C0000
3C0000
7C0000
7C0000
000000
000000
000000
000000
000000
000000
000000
000000
ENDCHAR

STARTCHAR zero
ENCODING 48
SWIDTH 720 0
DWIDTH 18 0
BBX 18 50 0 -10
BITMAP
000000
000000
000000
000000
000000
000000
000000
000000
000000
000000
03E000
03E000
0FF800
0FF800
1E3C00
1E3C00
3C1E00
3C1E00
3C1E00
3C1E00
780F00
780F00
780F00
780F00
780F00
780F00
780F00
780F00
780F00
780F00
3C1E00
3C1E00
3C1E00
3C1E00
1E3C00
1E3C00
0FF800
0FF800
03E000
03E000
000000
000000
000000
000000
000000
000000
000000
000000
000000
000000
ENDCHAR

STARTCHAR one
ENCODING 49
SWIDTH 720 0
DWIDTH 18 0
BBX 18 50 0 -10
BITMAP
000000
000000
000000
000000
000000
000000
000000
000000
000000
000000
00E000
00E000
03E000
03E000
0FE000
0FE000
3DE000
3DE000
31E000
31E000
01E000
01E000
01E000
01E000
01E000
01E000
01E000
01E000
01E000
01E000
01E000
01E000
01E000
01E000
01E000
01E000
1FFE00
1FFE00
1FFE00
1FFE00
000000
000000
000000
000000
000000
000000
000000
000000
000000
000000
ENDCHAR

STARTCHAR two
ENCODING 50
SWIDTH 720 0
DWIDTH 18 0
BBX 18 50 0 -10
BITMAP
000000
000000
000000
000000
000000
000000
000000
000000
000000
000000
0FF000
0FF000
3FFC00
3FFC00
783E00
783E00
701E00
701E00
701E00
701E00
003C00
003C00
007800
007800
00F000
00F000
01E000
01E000
078000
078000
0F0000
0F0000
1E0000
1E0000
3C0E00
3C0E00
7FFE00
7FFE00
7FFE00
7FFE00
000000
000000
000000
000000
000000
000000
000000
000000
000000
000000
ENDCHAR

STARTCHAR three
ENCODING 51
SWIDTH 720 0
DWIDTH 18 0
BBX 18 50 0 -10
BITMAP
000000
000000
000000
000000
000000
000000
000000
000000
000000
000000
1FF000
1FF000
7FFC00
7FFC00
783E00
783E00
001E00
001E00
001E00
001E00
003C00
003C00
07F000
07F000
07FC00
07FC00
003C00
003C00
001E00
001E00
001E00
001E00
001E00
001E00
783C00
783C00
7FFC00
7FFC00
1FF000
1FF000
000000
000000
000000
000000
000000
000000
000000
000000
000000
000000
ENDCHAR

STARTCHAR four
ENCODING 52
SWIDTH 720 0
DWIDTH 18 0
BBX 18 50 0 -10
BITMAP
000000
000000
000000
000000
000000
000000
000000
000000
000000
000000
003800
003800
00F800
00F800
01F800
01F800
03B800
03B800
073800
073800
0E3800
0E3800
1C3800
1C3800
383800
383800
703800
703800
7FFF00
7FFF00
7FFF00
7FFF00
003800
003800
003800
003800
003800
003800
003800
003800
000000
000000
000000
000000
000000
000000
000000
000000
000000
000000
ENDCHAR

STARTCHAR five
ENCODING 53
SWIDTH 720 0
DWIDTH 18 0
BBX 18 50 0 -10
BITMAP
000000
000000
000000
000000
000000
000000
000000
000000
000000
000000
3FFE00
3FFE00
3FFE00
3FFE00
380000
380000
380000
380000
380000
380000
380000
380000
3FF000
3FF000
3FFC00
3FFC00
003E00
003E00
001E00
001E00
001E00
001E00
001E00
001E00
783E00
783E00
7FFC00
7FFC00
0FF000
0FF000
000000
000000
000000
000000
000000
000000
000000
000000
000000
000000
ENDCHAR

STARTCHAR six
ENCODING 54
SWIDTH 720 0
DWIDTH 18 0
BBX 18 50 0 -10
BITMAP
000000
000000
000000
000000
000000
000000
000000
000000
000000
000000
007C00
007C00
03FC00
03FC00
0F8000
0F8000
1E0000
1E0000
3C0000
3C0000
3C0000
3C0000
7FF800
7FF800
7FFE00
7FFE00
7C1E00
7C1E00
780F00
780F00
780F00
780F00
780F00
780F00
3C1E00
3C1E00
3FFE00
3FFE00
0FF800
0FF800
000000
000000
000000
000000
000000
000000
000000
000000
000000
000000
ENDCHAR

STARTCHAR seven
ENCODING 55
SWIDTH 720 0
DWIDTH 18 0
BBX 18 50 0 -10
BITMAP
000000
000000
000000
000000
000000
000000
000000
000000
000000
000000
7FFF00
7FFF00
7FFF00
7FFF00
000F00
000F00
001E00
001E00
001E00
001E00
003C00
003C00
003C00
003C00
007800
007800
007800
007800
00F000
00F000
00F000
00F000
00E000
00E000
01E000
01E000
03C000
03C000
03C000
03C000
000000
000000
000000
000000
000000
000000
000000
000000
000000
000000
ENDCHAR

STARTCHAR eight
ENCODING 56
SWIDTH 720 0
DWIDTH 18 0
BBX 18 50 0 -10
BITMAP
000000
000000
000000
000000
000000
000000
000000
000000
000000
000000
07F000
07F000
1FFC00
1FFC00
3C1E00
3C1E00
780F00
780F00
780F00
780F00
3C1E00
3C1E00
0FF800
0FF800
3FFE00
3FFE00
3C1E00
3C1E00
780F00
780F00
780F00
780F00
780F00
780F00
3C1E00
3C1E00
3FFE00
3FFE00
0FF800
0FF800
000000
000000
000000
000000
000000
000000
000000
000000
000000
000000
ENDCHAR

STARTCHAR nine
ENCODING 57
SWIDTH 720 0
DWIDTH 18 0
BBX 18 50 0 -10
BITMAP
000000
000000
000000
000000
000000
000000
000000
000000
000000
000000
0FF800
0FF800
3FFE00
3FFE00
3C1E00
3C1E00
780F00
780F00
780F00
780F00
780F00
780F00
7C1F00
7C1F00
3FFF00
3FFF00
0FFF00
0FFF00
001E00
001E00
001E00
001E00
003C00
003C00
007C00
007C00
3FF000
3FF000
3FC000
3FC000
000000
000000
000000
000000
000000
000000
000000
000000
000000
000000
ENDCHAR

STARTCHAR colon
ENCODING 58
SWIDTH 720 0
DWIDTH 18 0
BBX 18 50 0 -10
BITMAP
000000
000000
000000
000000
000000
000000
000000
000000
000000
000000
000000
000000
000000
000000
000000
000000
000000
000000
000000
000000
03E000
03E000
07F000
07F000
03E000
03E000
000000
000000
000000
000000
000000
000000
000000
000000
03E000
03E000
07F000
07F000
03E000
03E000
000000
000000
000000
000000
000000
000000
000000
000000
000000
000000
ENDCHAR

STARTCHAR semicolon
ENCODING 59
SWIDTH 720 0
DWIDTH 18 0
BBX 18 50 0 -10
BITMAP
000000
000000
000000
000000
000000
000000
000000
000000
000000
000000
000000
000000
000000
000000
000000
000000
000000
000000
000000
000000
03E000
03E000
07F000
07F000
03E000
03E000
000000
000000
000000
000000
000000
000000
000000
000000
03E000
03E000
03E000
03E000
07C000
07C000
0F8000
0F8000
0E0000
0E0000
000000
000000
000000
000000
000000
000000
ENDCHAR

STARTCHAR less
ENCODING 60
SWIDTH 720 0
DWIDTH 18 0
BBX 18 50 0 -10
BITMAP
000000
000000
000000
000000
000000
000000
000000
000000
000000
000000
000000
000000
000000
000000
000000
000000
001C00
001C00
007C00
007C00
01F800
01F800
07E000
07E000
1F8000
1F8000
3E0000
3E0000
1F0000
1F0000
0FC000
0FC000
03E000
03E000
00F800
00F800
007C00
007C00
001C00
001C00
000000
000000
000000
000000
000000
000000
000000
000000
000000
000000
ENDCHAR

STARTCHAR equal
ENCODING 61
SWIDTH 720 0
DWIDTH 18 0
BBX 18 50 0 -10
BITMAP
000000
000000
000000
000000
000000
000000
000000
000000
000000
000000
000000
000000
000000
000000
000000
000000
000000
000000
000000
000000
000000
000000
3FFE00
3FFE00
3FFE00
3FFE00
000000
000000
000000
000000
000000
000000
3FFE00
3FFE00
3FFE00
3FFE00
000000
000000
000000
000000
000000
000000
000000
000000
000000
000000
000000
000000
000000
000000
ENDCHAR

STARTCHAR greater
ENCODING 62
SWIDTH 720 0
DWIDTH 18 0
BBX 18 50 0 -10
BITMAP
000000
000000
000000
000000
000000
000000
000000
000000
000000
000000
000000
000000
000000
000000
000000
000000
1C0000
1C0000
1F0000
1F0000
0FC000
0FC000
03F000
03F000
00FC00
00FC00
003E00
003E00
007C00
007C00
01F800
01F800
03E000
03E000
0F8000
0F8000
1F0000
1F0000
1C0000
1C0000
000000
000000
000000
000000
000000
000000
000000
000000
000000
000000
ENDCHAR

STARTCHAR question
ENCODING 63
SWIDTH 720 0
DWIDTH 18 0
BBX 18 50 0 -10
BITMAP
000000
000000
000000
000000
000000
000000
000000
000000
000000
000000
0FF800
0FF800
3FFE00
3FFE00
7C1F00
7C1F00
781F00
781F00
003F00
003F00
007E00
007E00
01F800
01F800
03E000
03E000
03C000
03C000
03C000
03C000
000000
000000
000000
000000
03E000
03E000
07F000
07F000
03E000
03E000
000000
000000
000000
000000
000000
000000
000000
000000
000000
000000
ENDCHAR

STARTCHAR at
ENCODING 64
SWIDTH 720 0
DWIDTH 18 0
BBX 18 50 0 -10
BITMAP
000000
000000
000000
000000
000000
000000
000000
000000
000000
000000
07F000
07F000
3FFC00
3FFC00
381C00
381C00
700E00
700E00
700E00
700E00
700E00
700E00
71FE00
71FE00
73FE00
73FE00
739E00
739E00
739E00
739E00
739E00
739E00
73FF00
73FF00
71F700
71F700
700000
700000
700000
700000
380F00
380F00
3FFF00
3FFF00
07F800
07F800
000000
000000
000000
000000
ENDCHAR

STARTCHAR A
ENCODING 65
SWIDTH 720 0
DWIDTH 18 0
BBX 18 50 0 -10
BITMAP
000000
000000
000000
000000
000000
000000
000000
000000
000000
000000
018000
018000
07E000
07E000
07E000
07E000
0FF000
0FF000
1E7800
1E7800
1C3800
1C3800
3C3C00
3C3C00
3C3C00
3C3C00
381C00
381C00
7FFE00
7FFE00
7FFE00
7FFE00
781E00
781E00
781E00
781E00
781E00
781E00
781E00
781E00
000000
000000
000000
000000
000000
000000
000000
000000
000000
000000
ENDCHAR

STARTCHAR B
ENCODING 66
SWIDTH 720 0
DWIDTH 18 0
BBX 18 50 0 -10
BITMAP
000000
000000
000000
000000
000000
000000
000000
000000
000000
000000
7FF000
7FF000
7FFC00
7FFC00
783E00
783E00
781E00
781E00
781E00
781E00
783E00
783E00
7FFC00
7FFC00
7FF800
7FF800
783C00
783C00
781E00
781E00
781E00
781E00
781E00
781E00
783E00
783E00
7FFC00
7FFC00
7FF000
7FF000
000000
000000
000000
000000
000000
000000
000000
000000
000000
000000
ENDCHAR

STARTCHAR C
ENCODING 67
SWIDTH 720 0
DWIDTH 18 0
BBX 18 50 0 -10
BITMAP
000000
000000
000000
000000
000000
000000
000000
000000
000000
000000
07F700
07F700
1FFF00
1FFF00
3C0F00
3C0F00
380F00
380F00
780000
780000
780000
780000
780000
780000
780000
780000
780000
780000
780000
780000
780000
780000
380000
380000
3C0F00
3C0F00
1FFF00
1FFF00
07F800
07F800
000000
000000
000000
000000
000000
000000
000000
000000
000000
000000
ENDCHAR

STARTCHAR D
ENCODING 68
SWIDTH 720 0
DWIDTH 18 0
BBX 18 50 0 -10
BITMAP
000000
000000
000000
000000
000000
000000
000000
000000
000000
000000
7FF000
7FF000
7FFC00
7FFC00
783E00
783E00
781E00
781E00
781F00
781F00
780F00
780F00
780F00
780F00
780F00
780F00
780F00
780F00
780F00
780F00
781F00
781F00
781E00
781E00
783E00
783E00
7FFC00
7FFC00
7FF000
7FF000
000000
000000
000000
000000
000000
000000
000000
000000
000000
000000
ENDCHAR

STARTCHAR E
ENCODING 69
SWIDTH 720 0
DWIDTH 18 0
BBX 18 50 0 -10
BITMAP
000000
000000
000000
000000
000000
000000
000000
000000
000000
000000
7FFE00
7FFE00
7FFE00
7FFE00
780000
780000
780000
780000
780000
780000
780000
780000
7FF800
7FF800
7FF800
7FF800
780000
780000
780000
780000
780000
780000
780000
780000
780000
780000
7FFE00
7FFE00
7FFE00
7FFE00
000000
000000
000000
000000
000000
000000
000000
000000
000000
000000
ENDCHAR

STARTCHAR F
ENCODING 70
SWIDTH 720 0
DWIDTH 18 0
BBX 18 50 0 -10
BITMAP
000000
000000
000000
000000
000000
000000
000000
000000
000000
000000
3FFF00
3FFF00
3FFF00
3FFF00
3C0000
3C0000
3C0000
3C0000
3C0000
3C0000
3C0000
3C0000
3FF800
3FF800
3FF800
3FF800
3C0000
3C0000
3C0000
3C0000
3C0000
3C0000
3C0000
3C0000
3C0000
3C0000
3C0000
3C0000
3C0000
3C0000
000000
000000
000000
000000
000000
000000
000000
000000
000000
000000
ENDCHAR

STARTCHAR G
ENCODING 71
SWIDTH 720 0
DWIDTH 18 0
BBX 18 50 0 -10
BITMAP
000000
000000
000000
000000
000000
000000
000000
000000
000000
000000
07F700
07F700
1FFF00
1FFF00
3C0F00
3C0F00
380700
380700
780700
780700
780000
780000
780000
780000
787F00
787F00
787F00
787F00
780F00
780F00
780F00
780F00
380F00
380F00
3C1F00
3C1F00
1FFF00
1FFF00
07F800
07F800
000000
000000
000000
000000
000000
000000
000000
000000
000000
000000
ENDCHAR

STARTCHAR H
ENCODING 72
SWIDTH 720 0
DWIDTH 18 0
BBX 18 50 0 -10
BITMAP
000000
000000
000000
000000
000000
000000
000000
000000
000000
000000
780F00
780F00
780F00
780F00
780F00
780F00
780F00
780F00
780F00
780F00
780F00
780F00
7FFF00
7FFF00
7FFF00
7FFF00
780F00
780F00
780F00
780F00
780F00
780F00
780F00
780F00
780F00
780F00
780F00
780F00
780F00
780F00
000000
000000
000000
000000
000000
000000
000000
000000
000000
000000
ENDCHAR

STARTCHAR I
ENCODING 73
SWIDTH 720 0
DWIDTH 18 0
BBX 18 50 0 -10
BITMAP
000000
000000
000000
000000
000000
000000
000000
000000
000000
000000
7FFE00
7FFE00
7FFE00
7FFE00
03C000
03C000
03C000
03C000
03C000
03C000
03C000
03C000
03C000
03C000
03C000
03C000
03C000
03C000
03C000
03C000
03C000
03C000
03C000
03C000
03C000
03C000
7FFE00
7FFE00
7FFE00
7FFE00
000000
000000
000000
000000
000000
000000
000000
000000
000000
000000
ENDCHAR

STARTCHAR J
ENCODING 74
SWIDTH 720 0
DWIDTH 18 0
BBX 18 50 0 -10
BITMAP
000000
000000
000000
000000
000000
000000
000000
000000
000000
000000
0FFF00
0FFF00
0FFF00
0FFF00
007800
007800
007800
007800
007800
007800
007800
007800
007800
007800
007800
007800
007800
007800
787800
787800
787800
787800
787800
787800
387000
387000
3FF000
3FF000
0FC000
0FC000
000000
000000
000000
000000
000000
000000
000000
000000
000000
000000
ENDCHAR

STARTCHAR K
ENCODING 75
SWIDTH 720 0
DWIDTH 18 0
BBX 18 50 0 -10
BITMAP
000000
000000
000000
000000
000000
000000
000000
000000
000000
000000
781E00
781E00
783E00
783E00
787800
787800
78F000
78F000
79E000
79E000
7BC000
7BC000
7F8000
7F8000
7F8000
7F8000
7FC000
7FC000
7BE000
7BE000
79F800
79F800
787C00
787C00
783E00
783E00
781F00
781F00
780F00
780F00
000000
000000
000000
000000
000000
000000
000000
000000
000000
000000
ENDCHAR

STARTCHAR L
ENCODING 76
SWIDTH 720 0
DWIDTH 18 0
BBX 18 50 0 -10
BITMAP
000000
000000
000000
000000
000000
000000
000000
000000
000000
000000
0F0000
0F0000
0F0000
0F0000
0F0000
0F0000
0F0000
0F0000
0F0000
0F0000
0F0000
0F0000
0F0000
0F0000
0F0000
0F0000
0F0000
0F0000
0F0000
0F0000
0F0000
0F0000
0F0000
0F0000
0F0000
0F0000
0FFF00
0FFF00
0FFF00
0FFF00
000000
000000
000000
000000
000000
000000
000000
000000
000000
000000
ENDCHAR

STARTCHAR M
ENCODING 77
SWIDTH 720 0
DWIDTH 18 0
BBX 18 50 0 -10
BITMAP
000000
000000
000000
000000
000000
000000
000000
000000
000000
000000
780F00
780F00
780F00
780F00
7C1F00
7C1F00
7C1F00
7C1F00
7E3F00
7E3F00
7E3F00
7E3F00
7F7F00
7F7F00
7BEF00
7BEF00
7BEF00
7BEF00
79CF00
79CF00
79CF00
79CF00
79CF00
79CF00
780F00
780F00
780F00
780F00
780F00
780F00
000000
000000
000000
000000
000000
000000
000000
000000
000000
000000
ENDCHAR

STARTCHAR N
ENCODING 78
SWIDTH 720 0
DWIDTH 18 0
BBX 18 50 0 -10
BITMAP
000000
000000
000000
000000
000000
000000
000000
000000
000000
000000
7C0F00
7C0F00
7C0F00
7C0F00
7E0F00
7E0F00
7F0F00
7F0F00
7F0F00
7F0F00
7F8F00
7F8F00
7B8F00
7B8F00
79CF00
79CF00
78EF00
78EF00
78FF00
78FF00
787F00
787F00
783F00
783F00
783F00
783F00
781F00
781F00
781F00
781F00
000000
000000
000000
000000
000000
000000
000000
000000
000000
000000
ENDCHAR

STARTCHAR O
ENCODING 79
SWIDTH 720 0
DWIDTH 18 0
BBX 18 50 0 -10
BITMAP
000000
000000
000000
000000
000000
000000
000000
000000
000000
000000
07F000
07F000
3FFE00
3FFE00
3C1E00
3C1E00
780F00
780F00
780F00
780F00
780F00
780F00
780F00
780F00
780F00
780F00
780F00
780F00
780F00
780F00
780F00
780F00
780F00
780F00
3C1E00
3C1E00
3FFE00
3FFE00
07F000
07F000
000000
000000
000000
000000
000000
000000
000000
000000
000000
000000
ENDCHAR

STARTCHAR P
ENCODING 80
SWIDTH 720 0
DWIDTH 18 0
BBX 18 50 0 -10
BITMAP
000000
000000
000000
000000
000000
000000
000000
000000
000000
000000
7FF800
7FF800
7FFE00
7FFE00
781F00
781F00
780F00
780F00
780F00
780F00
780F00
780F00
781F00
781F00
7FFE00
7FFE00
7FF800
7FF800
780000
780000
780000
780000
780000
780000
780000
780000
780000
780000
780000
780000
000000
000000
000000
000000
000000
000000
000000
000000
000000
000000
ENDCHAR

STARTCHAR Q
ENCODING 81
SWIDTH 720 0
DWIDTH 18 0
BBX 18 50 0 -10
BITMAP
000000
000000
000000
000000
000000
000000
000000
000000
000000
000000
07F000
07F000
3FFE00
3FFE00
3C1E00
3C1E00
780F00
780F00
780F00
780F00
780F00
780F00
780F00
780F00
780F00
780F00
780F00
780F00
780F00
780F00
780F00
780F00
780F00
780F00
3C1E00
3C1E00
3FFE00
3FFE00
07F000
07F000
0E0000
0E0000
1FC700
1FC700
3BFF00
3BFF00
307E00
307E00
000000
000000
ENDCHAR

STARTCHAR R
ENCODING 82
SWIDTH 720 0
DWIDTH 18 0
BBX 18 50 0 -10
BITMAP
000000
000000
000000
000000
000000
000000
000000
000000
000000
000000
7FF800
7FF800
7FFE00
7FFE00
781F00
781F00
780F00
780F00
780F00
780F00
780F00
780F00
781E00
781E00
7FFC00
7FFC00
7FF000
7FF000
78F000
78F000
787800
787800
783800
783800
783C00
783C00
781F00
781F00
781F00
781F00
000000
000000
000000
000000
000000
000000
000000
000000
000000
000000
ENDCHAR

STARTCHAR S
ENCODING 83
SWIDTH 720 0
DWIDTH 18 0
BBX 18 50 0 -10
BITMAP
000000
000000
000000
000000
000000
000000
000000
000000
000000
000000
07EF00
07EF00
1FFF00
1FFF00
3C0F00
3C0F00
780F00
780F00
780000
780000
7C0000
7C0000
3FC000
3FC000
0FF800
0FF800
01FE00
01FE00
003E00
003E00
001F00
001F00
781F00
781F00
783F00
783F00
7FFE00
7FFE00
77F800
77F800
000000
000000
000000
000000
000000
000000
000000
000000
000000
000000
ENDCHAR

STARTCHAR T
ENCODING 84
SWIDTH 720 0
DWIDTH 18 0
BBX 18 50 0 -10
BITMAP
000000
000000
000000
000000
000000
000000
000000
000000
000000
000000
3FFF00
3FFF00
3FFF00
3FFF00
01E000
01E000
01E000
01E000
01E000
01E000
01E000
01E000
01E000
01E000
01E000
01E000
01E000
01E000
01E000
01E000
01E000
01E000
01E000
01E000
01E000
01E000
01E000
01E000
01E000
01E000
000000
000000
000000
000000
000000
000000
000000
000000
000000
000000
ENDCHAR

STARTCHAR U
ENCODING 85
SWIDTH 720 0
DWIDTH 18 0
BBX 18 50 0 -10
BITMAP
000000
000000
000000
000000
000000
000000
000000
000000
000000
000000
780F00
780F00
780F00
780F00
780F00
780F00
780F00
780F00
780F00
780F00
780F00
780F00
780F00
780F00
780F00
780F00
780F00
780F00
780F00
780F00
780F00
780F00
780F00
780F00
7C1F00
7C1F00
3FFE00
3FFE00
0FF800
0FF800
000000
000000
000000
000000
000000
000000
000000
000000
000000
000000
ENDCHAR

STARTCHAR V
ENCODING 86
SWIDTH 720 0
DWIDTH 18 0
BBX 18 50 0 -10
BITMAP
000000
000000
000000
000000
000000
000000
000000
000000
000000
000000
780F00
780F00
780F00
780F00
780F00
780F00
780F00
780F00
780F00
780F00
780F00
780F00
780F00
780F00
780F00
780F00
380E00
380E00
3C1E00
3C1E00
3C1E00
3C1E00
1E3C00
1E3C00
0FF800
0FF800
07F000
07F000
01C000
01C000
000000
000000
000000
000000
000000
000000
000000
000000
000000
000000
ENDCHAR

STARTCHAR W
ENCODING 87
SWIDTH 720 0
DWIDTH 18 0
BBX 18 50 0 -10
BITMAP
000000
000000
000000
000000
000000
000000
000000
000000
000000
000000
780F00
780F00
780F00
780F00
780F00
780F00
780F00
780F00
780F00
780F00
79CF00
79CF00
79CF00
79CF00
79CF00
79CF00
7BEF00
7BEF00
7FFF00
7FFF00
7E3F00
7E3F00
7C1F00
7C1F00
3C1E00
3C1E00
380E00
380E00
380E00
380E00
000000
000000
000000
000000
000000
000000
000000
000000
000000
000000
ENDCHAR

STARTCHAR X
ENCODING 88
SWIDTH 720 0
DWIDTH 18 0
BBX 18 50 0 -10
BITMAP
000000
000000
000000
000000
000000
000000
000000
000000
000000
000000
780F00
780F00
7C1F00
7C1F00
3C1E00
3C1E00
1E3C00
1E3C00
0F7800
0F7800
07F000
07F000
07F000
07F000
03E000
03E000
07F000
07F000
0FF800
0FF800
0F7800
0F7800
1E3C00
1E3C00
3E3E00
3E3E00
7C1F00
7C1F00
7C1F00
7C1F00
000000
000000
000000
000000
000000
000000
000000
000000
000000
000000
ENDCHAR

STARTCHAR Y
ENCODING 89
SWIDTH 720 0
DWIDTH 18 0
BBX 18 50 0 -10
BITMAP
000000
000000
000000
000000
000000
000000
000000
000000
000000
000000
7C0F80
7C0F80
7C0F80
7C0F80
3C0F00
3C0F00
3E1F00
3E1F00
1E1E00
1E1E00
0F3C00
0F3C00
07F800
07F800
03F000
03F000
01E000
01E000
01E000
01E000
01E000
01E000
01E000
01E000
01E000
01E000
01E000
01E000
01E000
01E000
000000
000000
000000
000000
000000
000000
000000
000000
000000
000000
ENDCHAR

STARTCHAR Z
ENCODING 90
SWIDTH 720 0
DWIDTH 18 0
BBX 18 50 0 -10
BITMAP
000000
000000
000000
000000
000000
000000
000000
000000
000000
000000
7FFE00
7FFE00
7FFE00
7FFE00
703C00
703C00
707800
707800
70F000
70F000
01E000
01E000
01E000
01E000
03C000
03C000
078000
078000
0F0000
0F0000
0F0700
0F0700
1E0700
1E0700
3C0700
3C0700
7FFF00
7FFF00
7FFF00
7FFF00
000000
000000
000000
000000
000000
000000
000000
000000
000000
000000
ENDCHAR

STARTCHAR bracketleft
ENCODING 91
SWIDTH 720 0
DWIDTH 18 0
BBX 18 50 0 -10
BITMAP
000000
000000
000000
000000
000000
000000
000000
000000
07F000
07F000
07F000
07F000
078000
078000
078000
078000
078000
078000
078000
078000
078000
078000
078000
078000
078000
078000
078000
078000
078000
078000
078000
078000
078000
078000
078000
078000
078000
078000
078000
078000
078000
078000
07F000
07F000
07F000
07F000
000000
000000
000000
000000
ENDCHAR

STARTCHAR backslash
ENCODING 92
SWIDTH 720 0
DWIDTH 18 0
BBX 18 50 0 -10
BITMAP
000000
000000
000000
000000
000000
000000
000000
000000
7C0000
7C0000
3C0000
3C0000
3E0000
3E0000
1F0000
1F0000
1F0000
1F0000
0F8000
0F8000
07C000
07C000
03C000
03C000
03E000
03E000
01F000
01F000
00F000
00F000
00F800
00F800
007C00
007C00
003C00
003C00
003E00
003E00
001E00
001E00
001F00
001F00
000000
000000
000000
000000
000000
000000
000000
000000
ENDCHAR

STARTCHAR bracketright
ENCODING 93
SWIDTH 720 0
DWIDTH 18 0
BBX 18 50 0 -10
BITMAP
000000
000000
000000
000000
000000
000000
000000
000000
0FE000
0FE000
0FE000
0FE000
01E000
01E000
01E000
01E000
01E000
01E000
01E000
01E000
01E000
01E000
01E000
01E000
01E000
01E000
01E000
01E000
01E000
01E000
01E000
01E000
01E000
01E000
01E000
01E000
01E000
01E000
01E000
01E000
01E000
01E000
0FE000
0FE000
0FE000
0FE000
000000
000000
000000
000000
ENDCHAR

STARTCHAR asciicircum
ENCODING 94
SWIDTH 720 0
DWIDTH 18 0
BBX 18 50 0 -10
BITMAP
000000
000000
000000
000000
000000
000000
000000
000000
000000
000000
000000
000000
000000
000000
000000
000000
03E000
03E000
0FF800
0FF800
1E3C00
1E3C00
3C1E00
3C1E00
380E00
380E00
000000
000000
000000
000000
000000
000000
000000
000000
000000
000000
000000
000000
000000
000000
000000
000000
000000
000000
000000
000000
000000
000000
000000
000000
ENDCHAR

STARTCHAR underscore
ENCODING 95
SWIDTH 720 0
DWIDTH 18 0
BBX 18 50 0 -10
BITMAP
000000
000000
000000
000000
000000
000000
000000
000000
000000
000000
000000
000000
000000
000000
000000
000000
000000
000000
000000
000000
000000
000000
000000
000000
000000
000000
000000
000000
000000
000000
000000
000000
000000
000000
000000
000000
FFFF80
FFFF80
FFFF80
FFFF80
000000
000000
000000
000000
000000
000000
000000
000000
000000
000000
ENDCHAR

STARTCHAR quoteleft
ENCODING 96
SWIDTH 720 0
DWIDTH 18 0
BBX 18 50 0 -10
BITMAP
000000
000000
000000
000000
000000
000000
000000
000000
1F0000
1F0000
0F8000
0F8000
078000
078000
03C000
03C000
01C000
01C000
01E000
01E000
000000
000000
000000
000000
000000
000000
000000
000000
000000
000000
000000
000000
000000
000000
000000
000000
000000
000000
000000
000000
000000
000000
000000
000000
000000
000000
000000
000000
000000
000000
ENDCHAR

STARTCHAR a
ENCODING 97
SWIDTH 720 0
DWIDTH 18 0
BBX 18 50 0 -10
BITMAP
000000
000000
000000
000000
000000
000000
000000
000000
000000
000000
000000
000000
000000
000000
000000
000000
1FF000
1FF000
3FFC00
3FFC00
003C00
003C00
001E00
001E00
0FFE00
0FFE00
3FFE00
3FFE00
7E1E00
7E1E00
7C1E00
7C1E00
7C1E00
7C1E00
7E3E00
7E3E00
3FFE00
3FFE00
0FDE00
0FDE00
000000
000000
000000
000000
000000
000000
000000
000000
000000
000000
ENDCHAR

STARTCHAR b
ENCODING 98
SWIDTH 720 0
DWIDTH 18 0
BBX 18 50 0 -10
BITMAP
000000
000000
000000
000000
000000
000000
000000
000000
780000
780000
780000
780000
780000
780000
780000
780000
7BF000
7BF000
7FFC00
7FFC00
7C3C00
7C3C00
781E00
781E00
781E00
781E00
781E00
781E00
781E00
781E00
781E00
781E00
781E00
781E00
7C3C00
7C3C00
7FFC00
7FFC00
7BF000
7BF000
000000
000000
000000
000000
000000
000000
000000
000000
000000
000000
ENDCHAR

STARTCHAR c
ENCODING 99
SWIDTH 720 0
DWIDTH 18 0
BBX 18 50 0 -10
BITMAP
000000
000000
000000
000000
000000
000000
000000
000000
000000
000000
000000
000000
000000
000000
000000
000000
0FEE00
0FEE00
3FFE00
3FFE00
3C3E00
3C3E00
781E00
781E00
780000
780000
780000
780000
780000
780000
780000
780000
780000
780000
3C1E00
3C1E00
3FFE00
3FFE00
0FF800
0FF800
000000
000000
000000
000000
000000
000000
000000
000000
000000
000000
ENDCHAR

STARTCHAR d
ENCODING 100
SWIDTH 720 0
DWIDTH 18 0
BBX 18 50 0 -10
BITMAP
000000
000000
000000
000000
000000
000000
000000
000000
001E00
001E00
001E00
001E00
001E00
001E00
001E00
001E00
0FDE00
0FDE00
3FFE00
3FFE00
3C3E00
3C3E00
781E00
781E00
781E00
781E00
781E00
781E00
781E00
781E00
781E00
781E00
781E00
781E00
3C3E00
3C3E00
3FFE00
3FFE00
0FDE00
0FDE00
000000
000000
000000
000000
000000
000000
000000
000000
000000
000000
ENDCHAR

STARTCHAR e
ENCODING 101
SWIDTH 720 0
DWIDTH 18 0
BBX 18 50 0 -10
BITMAP
000000
000000
000000
000000
000000
000000
000000
000000
000000
000000
000000
000000
000000
000000
000000
000000
0FF000
0FF000
3FFC00
3FFC00
3C3C00
3C3C00
781E00
781E00
781E00
781E00
7FFE00
7FFE00
7FFE00
7FFE00
780000
780000
780000
780000
3C1E00
3C1E00
3FFE00
3FFE00
0FF800
0FF800
000000
000000
000000
000000
000000
000000
000000
000000
000000
000000
ENDCHAR

STARTCHAR f
ENCODING 102
SWIDTH 720 0
DWIDTH 18 0
BBX 18 50 0 -10
BITMAP
000000
000000
000000
000000
000000
000000
000000
000000
01FF00
01FF00
03FF00
03FF00
03C000
03C000
03C000
03C000
3FFE00
3FFE00
3FFE00
3FFE00
03C000
03C000
03C000
03C000
03C000
03C000
03C000
03C000
03C000
03C000
03C000
03C000
03C000
03C000
03C000
03C000
1FF800
1FF800
1FF800
1FF800
000000
000000
000000
000000
000000
000000
000000
000000
000000
000000
ENDCHAR

STARTCHAR g
ENCODING 103
SWIDTH 720 0
DWIDTH 18 0
BBX 18 50 0 -10
BITMAP
000000
000000
000000
000000
000000
000000
000000
000000
000000
000000
000000
000000
000000
000000
000000
000000
0FDE00
0FDE00
3FFE00
3FFE00
3C3E00
3C3E00
781E00
781E00
781E00
781E00
781E00
781E00
781E00
781E00
781E00
781E00
781E00
781E00
3C3E00
3C3E00
3FFE00
3FFE00
0F9E00
0F9E00
001E00
001E00
001E00
001E00
003C00
003C00
0FFC00
0FFC00
0FF000
0FF000
ENDCHAR

STARTCHAR h
ENCODING 104
SWIDTH 720 0
DWIDTH 18 0
BBX 18 50 0 -10
BITMAP
000000
000000
000000
000000
000000
000000
000000
000000
780000
780000
780000
780000
780000
780000
780000
780000
79F000
79F000
7FFC00
7FFC00
7E3C00
7E3C00
7C1E00
7C1E00
781E00
781E00
781E00
781E00
781E00
781E00
781E00
781E00
781E00
781E00
781E00
781E00
781E00
781E00
781E00
781E00
000000
000000
000000
000000
000000
000000
000000
000000
000000
000000
ENDCHAR

STARTCHAR i
ENCODING 105
SWIDTH 720 0
DWIDTH 18 0
BBX 18 50 0 -10
BITMAP
000000
000000
000000
000000
000000
000000
01E000
01E000
01E000
01E000
01E000
01E000
000000
000000
000000
000000
1FE000
1FE000
1FE000
1FE000
01E000
01E000
01E000
01E000
01E000
01E000
01E000
01E000
01E000
01E000
01E000
01E000
01E000
01E000
01E000
01E000
3FFF00
3FFF00
3FFF00
3FFF00
000000
000000
000000
000000
000000
000000
000000
000000
000000
000000
ENDCHAR

STARTCHAR j
ENCODING 106
SWIDTH 720 0
DWIDTH 18 0
BBX 18 50 0 -10
BITMAP
000000
000000
000000
000000
000000
000000
00F000
00F000
00F000
00F000
00F000
00F000
000000
000000
000000
000000
0FF000
0FF000
0FF000
0FF000
00F000
00F000
00F000
00F000
00F000
00F000
00F000
00F000
00F000
00F000
00F000
00F000
00F000
00F000
00F000
00F000
00F000
00F000
00F000
00F000
00F000
00F000
00F000
00F000
01E000
01E000
3FE000
3FE000
3F0000
3F0000
ENDCHAR

STARTCHAR k
ENCODING 107
SWIDTH 720 0
DWIDTH 18 0
BBX 18 50 0 -10
BITMAP
000000
000000
000000
000000
000000
000000
000000
000000
780000
780000
780000
780000
780000
780000
780000
780000
781E00
781E00
783E00
783E00
787800
787800
79F000
79F000
7BC000
7BC000
7F8000
7F8000
7FC000
7FC000
7FE000
7FE000
79F000
79F000
78FC00
78FC00
783E00
783E00
781E00
781E00
000000
000000
000000
000000
000000
000000
000000
000000
000000
000000
ENDCHAR

STARTCHAR l
ENCODING 108
SWIDTH 720 0
DWIDTH 18 0
BBX 18 50 0 -10
BITMAP
000000
000000
000000
000000
000000
000000
000000
000000
1FE000
1FE000
1FE000
1FE000
01E000
01E000
01E000
01E000
01E000
01E000
01E000
01E000
01E000
01E000
01E000
01E000
01E000
01E000
01E000
01E000
01E000
01E000
01E000
01E000
01E000
01E000
01E000
01E000
1FFE00
1FFE00
1FFE00
1FFE00
000000
000000
000000
000000
000000
000000
000000
000000
000000
000000
ENDCHAR

STARTCHAR m
ENCODING 109
SWIDTH 720 0
DWIDTH 18 0
BBX 18 50 0 -10
BITMAP
000000
000000
000000
000000
000000
000000
000000
000000
000000
000000
000000
000000
000000
000000
000000
000000
679E00
679E00
7FFF00
7FFF00
7BEF80
7BEF80
79E780
79E780
79E780
79E780
79E780
79E780
79E780
79E780
79E780
79E780
79E780
79E780
79E780
79E780
79E780
79E780
79E780
79E780
000000
000000
000000
000000
000000
000000
000000
000000
000000
000000
ENDCHAR

STARTCHAR n
ENCODING 110
SWIDTH 720 0
DWIDTH 18 0
BBX 18 50 0 -10
BITMAP
000000
000000
000000
000000
000000
000000
000000
000000
000000
000000
000000
000000
000000
000000
000000
000000
79F000
79F000
7FFC00
7FFC00
7E3C00
7E3C00
7C1E00
7C1E00
781E00
781E00
781E00
781E00
781E00
781E00
781E00
781E00
781E00
781E00
781E00
781E00
781E00
781E00
781E00
781E00
000000
000000
000000
000000
000000
000000
000000
000000
000000
000000
ENDCHAR

STARTCHAR o
ENCODING 111
SWIDTH 720 0
DWIDTH 18 0
BBX 18 50 0 -10
BITMAP
000000
000000
000000
000000
000000
000000
000000
000000
000000
000000
000000
000000
000000
000000
000000
000000
0FF000
0FF000
3FFC00
3FFC00
3C3C00
3C3C00
781E00
781E00
781E00
781E00
781E00
781E00
781E00
781E00
781E00
781E00
781E00
781E00
3C3C00
3C3C00
3FFC00
3FFC00
0FF000
0FF000
000000
000000
000000
000000
000000
000000
000000
000000
000000
000000
ENDCHAR

STARTCHAR p
ENCODING 112
SWIDTH 720 0
DWIDTH 18 0
BBX 18 50 0 -10
BITMAP
000000
000000
000000
000000
000000
000000
000000
000000
000000
000000
000000
000000
000000
000000
000000
000000
7BF000
7BF000
7FFC00
7FFC00
7C3C00
7C3C00
781E00
781E00
781E00
781E00
781E00
781E00
781E00
781E00
781E00
781E00
781E00
781E00
7C3C00
7C3C00
7FFC00
7FFC00
7BF000
7BF000
780000
780000
780000
780000
780000
780000
780000
780000
780000
780000
ENDCHAR

STARTCHAR q
ENCODING 113
SWIDTH 720 0
DWIDTH 18 0
BBX 18 50 0 -10
BITMAP
000000
000000
000000
000000
000000
000000
000000
000000
000000
000000
000000
000000
000000
000000
000000
000000
0FDE00
0FDE00
3FFE00
3FFE00
3C3E00
3C3E00
781E00
781E00
781E00
781E00
781E00
781E00
781E00
781E00
781E00
781E00
781E00
781E00
3C3E00
3C3E00
3FFE00
3FFE00
0FDE00
0FDE00
001E00
001E00
001E00
001E00
001E00
001E00
001E00
001E00
001E00
001E00
ENDCHAR

STARTCHAR r
ENCODING 114
SWIDTH 720 0
DWIDTH 18 0
BBX 18 50 0 -10
BITMAP
000000
000000
000000
000000
000000
000000
000000
000000
000000
000000
000000
000000
000000
000000
000000
000000
1E7E00
1E7E00
1FFF00
1FFF00
1F8F00
1F8F00
1E0000
1E0000
1E0000
1E0000
1E0000
1E0000
1E0000
1E0000
1E0000
1E0000
1E0000
1E0000
1E0000
1E0000
1E0000
1E0000
1E0000
1E0000
000000
000000
000000
000000
000000
000000
000000
000000
000000
000000
ENDCHAR

STARTCHAR s
ENCODING 115
SWIDTH 720 0
DWIDTH 18 0
BBX 18 50 0 -10
BITMAP
000000
000000
000000
000000
000000
000000
000000
000000
000000
000000
000000
000000
000000
000000
000000
000000
0FEE00
0FEE00
3FFE00
3FFE00
7C1E00
7C1E00
7C0000
7C0000
7F8000
7F8000
3FF000
3FF000
07FC00
07FC00
00FE00
00FE00
003E00
003E00
703E00
703E00
7FFC00
7FFC00
7FF000
7FF000
000000
000000
000000
000000
000000
000000
000000
000000
000000
000000
ENDCHAR

STARTCHAR t
ENCODING 116
SWIDTH 720 0
DWIDTH 18 0
BBX 18 50 0 -10
BITMAP
000000
000000
000000
000000
000000
000000
000000
000000
0F0000
0F0000
0F0000
0F0000
0F0000
0F0000
0F0000
0F0000
7FFC00
7FFC00
7FFC00
7FFC00
0F0000
0F0000
0F0000
0F0000
0F0000
0F0000
0F0000
0F0000
0F0000
0F0000
0F0000
0F0000
0F0000
0F0000
0F8F00
0F8F00
07FF00
07FF00
03FC00
03FC00
000000
000000
000000
000000
000000
000000
000000
000000
000000
000000
ENDCHAR

STARTCHAR u
ENCODING 117
SWIDTH 720 0
DWIDTH 18 0
BBX 18 50 0 -10
BITMAP
000000
000000
000000
000000
000000
000000
000000
000000
000000
000000
000000
000000
000000
000000
000000
000000
781E00
781E00
781E00
781E00
781E00
781E00
781E00
781E00
781E00
781E00
781E00
781E00
781E00
781E00
781E00
781E00
781E00
781E00
3C3E00
3C3E00
3FFE00
3FFE00
07DE00
07DE00
000000
000000
000000
000000
000000
000000
000000
000000
000000
000000
ENDCHAR

STARTCHAR v
ENCODING 118
SWIDTH 720 0
DWIDTH 18 0
BBX 18 50 0 -10
BITMAP
000000
000000
000000
000000
000000
000000
000000
000000
000000
000000
000000
000000
000000
000000
000000
000000
780F00
780F00
780F00
780F00
7C1F00
7C1F00
3C1E00
3C1E00
3C1E00
3C1E00
1E3C00
1E3C00
0E3800
0E3800
0F7800
0F7800
07F000
07F000
07F000
07F000
03E000
03E000
03E000
03E000
000000
000000
000000
000000
000000
000000
000000
000000
000000
000000
ENDCHAR

STARTCHAR w
ENCODING 119
SWIDTH 720 0
DWIDTH 18 0
BBX 18 50 0 -10
BITMAP
000000
000000
000000
000000
000000
000000
000000
000000
000000
000000
000000
000000
000000
000000
000000
000000
780F00
780F00
780F00
780F00
79CF00
79CF00
79CF00
79CF00
79CF00
79CF00
79CF00
79CF00
79CF00
79CF00
3BEE00
3BEE00
3BEE00
3BEE00
3F7E00
3F7E00
1E3C00
1E3C00
1E3C00
1E3C00
000000
000000
000000
000000
000000
000000
000000
000000
000000
000000
ENDCHAR

STARTCHAR x
ENCODING 120
SWIDTH 720 0
DWIDTH 18 0
BBX 18 50 0 -10
BITMAP
000000
000000
000000
000000
000000
000000
000000
000000
000000
000000
000000
000000
000000
000000
000000
000000
3C1E00
3C1E00
3E3E00
3E3E00
1E3C00
1E3C00
0F7800
0F7800
07F000
07F000
03E000
03E000
07F000
07F000
07F000
07F000
0F7800
0F7800
1E3C00
1E3C00
3C1E00
3C1E00
3C1E00
3C1E00
000000
000000
000000
000000
000000
000000
000000
000000
000000
000000
ENDCHAR

STARTCHAR y
ENCODING 121
SWIDTH 720 0
DWIDTH 18 0
BBX 18 50 0 -10
BITMAP
000000
000000
000000
000000
000000
000000
000000
000000
000000
000000
000000
000000
000000
000000
000000
000000
7C1F00
7C1F00
7C1F00
7C1F00
3C1E00
3C1E00
3E3E00
3E3E00
1E3C00
1E3C00
1E3800
1E3800
0E3800
0E3800
077000
077000
077000
077000
07F000
07F000
03E000
03E000
03E000
03E000
03C000
03C000
03C000
03C000
078000
078000
078000
078000
078000
078000
ENDCHAR

STARTCHAR z
ENCODING 122
SWIDTH 720 0
DWIDTH 18 0
BBX 18 50 0 -10
BITMAP
000000
000000
000000
000000
000000
000000
000000
000000
000000
000000
000000
000000
000000
000000
000000
000000
3FFE00
3FFE00
3FFE00
3FFE00
003E00
003E00
007C00
007C00
00F800
00F800
03F000
03F000
07E000
07E000
0F8000
0F8000
1F0000
1F0000
3E0000
3E0000
3FFE00
3FFE00
3FFE00
3FFE00
000000
000000
000000
000000
000000
000000
000000
000000
000000
000000
ENDCHAR

STARTCHAR braceleft
ENCODING 123
SWIDTH 720 0
DWIDTH 18 0
BBX 18 50 0 -10
BITMAP
000000
000000
000000
000000
000000
000000
000000
000000
007800
007800
00F800
00F800
00E000
00E000
01E000
01E000
01E000
01E000
01E000
01E000
01E000
01E000
01C000
01C000
03C000
03C000
0F8000
0F8000
03C000
03C000
01C000
01C000
01E000
01E000
01E000
01E000
01E000
01E000
01E000
01E000
00E000
00E000
00F800
00F800
007800
007800
000000
000000
000000
000000
ENDCHAR

STARTCHAR bar
ENCODING 124
SWIDTH 720 0
DWIDTH 18 0
BBX 18 50 0 -10
BITMAP
000000
000000
000000
000000
000000
000000
000000
000000
01E000
01E000
01E000
01E000
01E000
01E000
01E000
01E000
01E000
01E000
01E000
01E000
01E000
01E000
01E000
01E000
01E000
01E000
01E000
01E000
01E000
01E000
01E000
01E000
01E000
01E000
01E000
01E000
01E000
01E000
01E000
01E000
01E000
01E000
01E000
01E000
000000
000000
000000
000000
000000
000000
ENDCHAR

STARTCHAR braceright
ENCODING 125
SWIDTH 720 0
DWIDTH 18 0
BBX 18 50 0 -10
BITMAP
000000
000000
000000
000000
000000
000000
000000
000000
0F0000
0F0000
0F8000
0F8000
038000
038000
03C000
03C000
03C000
03C000
03C000
03C000
03C000
03C000
01C000
01C000
01E000
01E000
00F800
00F800
01E000
01E000
01C000
01C000
03C000
03C000
03C000
03C000
03C000
03C000
03C000
03C000
038000
038000
0F8000
0F8000
0F0000
0F0000
000000
000000
000000
000000
ENDCHAR

STARTCHAR asciitilde
ENCODING 126
SWIDTH 720 0
DWIDTH 18 0
BBX 18 50 0 -10
BITMAP
000000
000000
000000
000000
000000
000000
000000
000000
000000
000000
000000
000000
000000
000000
000000
000000
0F0E00
0F0E00
1F8E00
1F8E00
3DDE00
3DDE00
38FC00
38FC00
387800
387800
000000
000000
000000
000000
000000
000000
000000
000000
000000
000000
000000
000000
000000
000000
000000
000000
000000
000000
000000
000000
000000
000000
000000
000000
ENDCHAR

STARTCHAR OE
ENCODING 128
SWIDTH 720 0
DWIDTH 18 0
BBX 18 50 0 -10
BITMAP
000000
000000
000000
000000
000000
000000
000000
000000
000000
000000
1FFF00
7FFF00
7FFF00
7FFF00
F1C000
F1C000
F1C000
F1C000
F1C000
F1C000
F1C000
F1C000
F1FC00
F1FC00
F1FC00
F1FC00
F1C000
F1C000
F1C000
F1C000
F1C000
F1C000
F1C000
F1C000
F1C000
F1C000
7FFF00
7FFF00
3FFF00
3EFF00
000000
000000
000000
000000
000000
000000
000000
000000
000000
000000
ENDCHAR

STARTCHAR oe
ENCODING 129
SWIDTH 720 0
DWIDTH 18 0
BBX 18 50 0 -10
BITMAP
000000
000000
000000
000000
000000
000000
000000
000000
000000
000000
000000
000000
000000
000000
000000
000000
1F3C00
1F3C00
7FFF00
7FFF00
73CF00
F3CF00
F1C780
F1C780
F1C780
F1C780
F1FF80
F1FF80
F1FF80
F1FF80
F1C000
F1C000
F1C000
F1C000
F1E380
F1E380
7FFF80
7FFF80
3E7E00
3E7E00
000000
000000
000000
000000
000000
000000
000000
000000
000000
000000
ENDCHAR

STARTCHAR Ydieresis
ENCODING 130
SWIDTH 720 0
DWIDTH 18 0
BBX 18 50 0 -10
BITMAP
1E1E00
1E1E00
1E1E00
1E1E00
1E1E00
1E1E00
000000
000000
000000
000000
7C0F80
7C0F80
7C0F80
7C0F80
3C0F00
3C0F00
3E1F00
3E1F00
1E1E00
1E1E00
0F3C00
0F3C00
07F800
07F800
03F000
03F000
01E000
01E000
01E000
01E000
01E000
01E000
01E000
01E000
01E000
01E000
01E000
01E000
01E000
01E000
000000
000000
000000
000000
000000
000000
000000
000000
000000
000000
ENDCHAR

STARTCHAR Error
ENCODING 159
SWIDTH 720 0
DWIDTH 18 0
BBX 18 50 0 -10
BITMAP
0FFC00
0FFC00
3FFF00
3FFF00
7FFF80
7FFF80
FC1F80
FC1F80
F80F80
F80F80
F80F80
F80F80
FC0F80
FC0F80
FE0000
FE0000
7F0000
7F0000
3F8000
3F8000
1FC000
1FC000
0FE000
0FE000
07E000
07E000
07E000
07E000
07E000
07E000
07E000
07E000
000000
000000
000000
000000
000000
000000
03C000
03C000
07E000
07E000
0FF000
0FF000
0FF000
0FF000
07E000
07E000
03C000
03C000
ENDCHAR

STARTCHAR space
ENCODING 160
SWIDTH 720 0
DWIDTH 18 0
BBX 18 50 0 -10
BITMAP
000000
000000
000000
000000
000000
000000
000000
000000
000000
000000
000000
000000
000000
000000
000000
000000
000000
000000
000000
000000
000000
000000
000000
000000
000000
000000
000000
000000
000000
000000
000000
000000
000000
000000
000000
000000
000000
000000
000000
000000
000000
000000
000000
000000
000000
000000
000000
000000
000000
000000
ENDCHAR

STARTCHAR exclamdown
ENCODING 161
SWIDTH 720 0
DWIDTH 18 0
BBX 18 50 0 -10
BITMAP
000000
000000
000000
000000
000000
000000
000000
000000
000000
000000
000000
000000
000000
000000
03E000
03E000
07F000
07F000
03E000
03E000
000000
000000
000000
000000
03E000
03E000
03E000
03E000
03E000
03E000
03E000
03E000
03E000
03E000
03E000
03E000
03E000
03E000
03E000
03E000
03E000
03E000
03E000
03E000
000000
000000
000000
000000
000000
000000
ENDCHAR

STARTCHAR cent
ENCODING 162
SWIDTH 720 0
DWIDTH 18 0
BBX 18 50 0 -10
BITMAP
000000
000000
000000
000000
000000
000000
000000
000000
01E000
01E000
01E000
01E000
01E000
01E000
0FF700
0FF700
3FFF00
3FFF00
7C0F00
7C0F00
780000
780000
780000
780000
780000
780000
780000
780000
780F00
780F00
7C0F00
7C0F00
3FFF00
3FFF00
0FF800
0FF800
01E000
01E000
01E000
01E000
01E000
01E000
000000
000000
000000
000000
000000
000000
000000
000000
ENDCHAR

STARTCHAR sterling
ENCODING 163
SWIDTH 720 0
DWIDTH 18 0
BBX 18 50 0 -10
BITMAP
000000
000000
000000
000000
000000
000000
000000
000000
000000
000000
03F000
03F000
0FFE00
0FFE00
0FFE00
0FFE00
1E0E00
1E0E00
1E0000
1E0000
0F0000
0F0000
0F0000
0F0000
3FF000
3FF000
3FF000
3FF000
070000
070000
078000
078000
078000
078000
0FC380
0FC380
7FFF80
7FFF80
78FE00
78FE00
000000
000000
000000
000000
000000
000000
000000
000000
000000
000000
ENDCHAR

STARTCHAR currency
ENCODING 164
SWIDTH 720 0
DWIDTH 18 0
BBX 18 50 0 -10
BITMAP
000000
000000
000000
000000
000000
000000
000000
000000
000000
000000
000000
000000
000000
000000
780F00
780F00
7FFF00
7FFF00
0FF800
0FF800
1E3C00
1E3C00
1C1C00
1C1C00
1C1C00
1C1C00
1C1C00
1C1C00
1E3C00
1E3C00
0FF800
0FF800
7FFF00
7FFF00
780F00
780F00
000000
000000
000000
000000
000000
000000
000000
000000
000000
000000
000000
000000
000000
000000
ENDCHAR

STARTCHAR yen
ENCODING 165
SWIDTH 720 0
DWIDTH 18 0
BBX 18 50 0 -10
BITMAP
000000
000000
000000
000000
000000
000000
000000
000000
000000
000000
F81F00
F81F00
F81F00
F81F00
781E00
781E00
7C3E00
7C3E00
3C3C00
3C3C00
1E7800
1E7800
7FFE00
7FFE00
7FFE00
7FFE00
03C000
03C000
7FFE00
7FFE00
7FFE00
7FFE00
03C000
03C000
03C000
03C000
03C000
03C000
03C000
03C000
000000
000000
000000
000000
000000
000000
000000
000000
000000
000000
ENDCHAR

STARTCHAR brokenbar
ENCODING 166
SWIDTH 720 0
DWIDTH 18 0
BBX 18 50 0 -10
BITMAP
000000
000000
000000
000000
000000
000000
000000
000000
01E000
01E000
01E000
01E000
01E000
01E000
01E000
01E000
01E000
01E000
01E000
01E000
01E000
01E000
01E000
01E000
000000
000000
000000
000000
000000
000000
000000
000000
01E000
01E000
01E000
01E000
01E000
01E000
01E000
01E000
01E000
01E000
01E000
01E000
01E000
01E000
01E000
01E000
000000
000000
ENDCHAR

STARTCHAR section
ENCODING 167
SWIDTH 720 0
DWIDTH 18 0
BBX 18 50 0 -10
BITMAP
000000
000000
000000
000000
000000
000000
000000
000000
000000
000000
07F000
07F000
1FFC00
1FFC00
3C1C00
3C1C00
3C1C00
3C1C00
1F0000
1F0000
1FC000
1FC000
3FE000
3FE000
38F800
38F800
3C3C00
3C3C00
1E1E00
1E1E00
0F8E00
0F8E00
07FE00
07FE00
01FC00
01FC00
007800
007800
383C00
383C00
3C7C00
3C7C00
3FF800
3FF800
0FE000
0FE000
000000
000000
000000
000000
ENDCHAR

STARTCHAR dieresis
ENCODING 168
SWIDTH 720 0
DWIDTH 18 0
BBX 18 50 0 -10
BITMAP
000000
000000
000000
000000
000000
000000
3C3C00
3C3C00
3C3C00
3C3C00
3C3C00
3C3C00
000000
000000
000000
000000
000000
000000
000000
000000
000000
000000
000000
000000
000000
000000
000000
000000
000000
000000
000000
000000
000000
000000
000000
000000
000000
000000
000000
000000
000000
000000
000000
000000
000000
000000
000000
000000
000000
000000
ENDCHAR

STARTCHAR copyright
ENCODING 169
SWIDTH 720 0
DWIDTH 18 0
BBX 18 50 0 -10
BITMAP
000000
000000
000000
000000
000000
000000
000000
000000
000000
000000
000000
000000
0FF800
0FF800
3FFE00
3FFE00
300600
300600
63F300
63F300
67F300
67F300
660300
660300
660300
660300
660300
660300
67F300
67F300
63F300
63F300
300600
300600
3FFE00
3FFE00
0FF800
0FF800
000000
000000
000000
000000
000000
000000
000000
000000
000000
000000
000000
000000
ENDCHAR

STARTCHAR ordfeminine
ENCODING 170
SWIDTH 720 0
DWIDTH 18 0
BBX 18 50 0 -10
BITMAP
000000
000000
000000
000000
000000
000000
000000
000000
000000
000000
3FF800
3FF800
3FFE00
3FFE00
000F00
000F00
1FFF00
1FFF00
7E0F00
7E0F00
7C0F00
7C0F00
7FFF00
7FFF00
1FFF00
1FFF00
000000
000000
000000
000000
7FFF00
7FFF00
7FFF00
7FFF00
000000
000000
000000
000000
000000
000000
000000
000000
000000
000000
000000
000000
000000
000000
000000
000000
ENDCHAR

STARTCHAR guillemotleft
ENCODING 171
SWIDTH 720 0
DWIDTH 18 0
BBX 18 50 0 -10
BITMAP
000000
000000
000000
000000
000000
000000
000000
000000
000000
000000
000000
000000
000000
000000
000000
000000
000000
000000
018300
018300
078F00
078F00
0E1C00
0E1C00
3C7800
3C7800
70E000
70E000
70E000
70E000
3C7800
3C7800
0E1C00
0E1C00
078F00
078F00
018300
018300
000000
000000
000000
000000
000000
000000
000000
000000
000000
000000
000000
000000
ENDCHAR

STARTCHAR logicalnot
ENCODING 172
SWIDTH 720 0
DWIDTH 18 0
BBX 18 50 0 -10
BITMAP
000000
000000
000000
000000
000000
000000
000000
000000
000000
000000
000000
000000
000000
000000
000000
000000
000000
000000
000000
000000
7FFF00
7FFF00
7FFF00
7FFF00
000F00
000F00
000F00
000F00
000F00
000F00
000F00
000F00
000000
000000
000000
000000
000000
000000
000000
000000
000000
000000
000000
000000
000000
000000
000000
000000
000000
000000
ENDCHAR

STARTCHAR hyphen
ENCODING 173
SWIDTH 720 0
DWIDTH 18 0
BBX 18 50 0 -10
BITMAP
000000
000000
000000
000000
000000
000000
000000
000000
000000
000000
000000
000000
000000
000000
000000
000000
000000
000000
000000
000000
000000
000000
000000
000000
000000
000000
0FF800
0FF800
0FF800
0FF800
0FF800
0FF800
000000
000000
000000
000000
000000
000000
000000
000000
000000
000000
000000
000000
000000
000000
000000
000000
000000
000000
ENDCHAR

STARTCHAR registered
ENCODING 174
SWIDTH 720 0
DWIDTH 18 0
BBX 18 50 0 -10
BITMAP
000000
000000
000000
000000
000000
000000
000000
000000
000000
000000
000000
000000
0FF800
0FF800
3FFE00
3FFE00
300600
300600
600300
600300
67E300
67E300
663300
663300
67E300
67E300
663300
663300
663300
663300
600300
600300
300600
300600
3FFE00
3FFE00
0FF800
0FF800
000000
000000
000000
000000
000000
000000
000000
000000
000000
000000
000000
000000
ENDCHAR

STARTCHAR macron
ENCODING 175
SWIDTH 720 0
DWIDTH 18 0
BBX 18 50 0 -10
BITMAP
000000
000000
000000
000000
000000
000000
0FF800
0FF800
0FF800
0FF800
000000
000000
000000
000000
000000
000000
000000
000000
000000
000000
000000
000000
000000
000000
000000
000000
000000
000000
000000
000000
000000
000000
000000
000000
000000
000000
000000
000000
000000
000000
000000
000000
000000
000000
000000
000000
000000
000000
000000
000000
ENDCHAR

STARTCHAR degree
ENCODING 176
SWIDTH 720 0
DWIDTH 18 0
BBX 18 50 0 -10
BITMAP
000000
000000
000000
000000
000000
000000
000000
000000
000000
000000
0FF000
0FF000
3FFC00
3FFC00
781E00
781E00
781E00
781E00
781E00
781E00
781E00
781E00
3FFC00
3FFC00
0FF000
0FF000
000000
000000
000000
000000
000000
000000
000000
000000
000000
000000
000000
000000
000000
000000
000000
000000
000000
000000
000000
000000
000000
000000
000000
000000
ENDCHAR

STARTCHAR plusminus
ENCODING 177
SWIDTH 720 0
DWIDTH 18 0
BBX 18 50 0 -10
BITMAP
000000
000000
000000
000000
000000
000000
000000
000000
000000
000000
000000
000000
000000
000000
03E000
03E000
03E000
03E000
03E000
03E000
03E000
03E000
7FFF00
7FFF00
7FFF00
7FFF00
03E000
03E000
03E000
03E000
03E000
03E000
03E000
03E000
000000
000000
7FFF00
7FFF00
7FFF00
7FFF00
000000
000000
000000
000000
000000
000000
000000
000000
000000
000000
ENDCHAR

STARTCHAR twosuperior
ENCODING 178
SWIDTH 720 0
DWIDTH 18 0
BBX 18 50 0 -10
BITMAP
000000
000000
000000
000000
000000
000000
000000
000000
000000
000000
0FF000
0FF000
0FFC00
0FFC00
001C00
001C00
003C00
003C00
00F000
00F000
01C000
01C000
078000
078000
0FFC00
0FFC00
0FFC00
0FFC00
000000
000000
000000
000000
000000
000000
000000
000000
000000
000000
000000
000000
000000
000000
000000
000000
000000
000000
000000
000000
000000
000000
ENDCHAR

STARTCHAR threesuperior
ENCODING 179
SWIDTH 720 0
DWIDTH 18 0
BBX 18 50 0 -10
BITMAP
000000
000000
000000
000000
000000
000000
000000
000000
000000
000000
1FE000
1FE000
1FF000
1FF000
003800
003800
0FF000
0FF000
0FF800
0FF800
003800
003800
003800
003800
1FF000
1FF000
1FE000
1FE000
000000
000000
000000
000000
000000
000000
000000
000000
000000
000000
000000
000000
000000
000000
000000
000000
000000
000000
000000
000000
000000
000000
ENDCHAR

STARTCHAR acute
ENCODING 180
SWIDTH 720 0
DWIDTH 18 0
BBX 18 50 0 -10
BITMAP
000000
000000
000000
000000
000000
000000
007C00
007C00
01F000
01F000
07C000
07C000
000000
000000
000000
000000
000000
000000
000000
000000
000000
000000
000000
000000
000000
000000
000000
000000
000000
000000
000000
000000
000000
000000
000000
000000
000000
000000
000000
000000
000000
000000
000000
000000
000000
000000
000000
000000
000000
000000
ENDCHAR

STARTCHAR mu
ENCODING 181
SWIDTH 720 0
DWIDTH 18 0
BBX 18 50 0 -10
BITMAP
000000
000000
000000
000000
000000
000000
000000
000000
000000
000000
000000
000000
000000
000000
000000
000000
000000
000000
000000
000000
0F8F00
0F8F00
0F8F00
0F8F00
0F1E00
0F1E00
1F1E00
1F1E00
1E1E00
1E1E00
1E1C00
1E1C00
1E3C00
1E3C00
3C3C00
3C3C00
3FFF00
3FFF00
3FE700
3FE700
380000
380000
780000
780000
700000
700000
700000
700000
000000
000000
ENDCHAR

STARTCHAR paragraph
ENCODING 182
SWIDTH 720 0
DWIDTH 18 0
BBX 18 50 0 -10
BITMAP
000000
000000
000000
000000
000000
000000
000000
000000
000000
000000
07FF00
07FF00
3F8E00
3F8E00
3F8E00
3F8E00
7F8E00
7F8E00
7F8E00
7F8E00
7F8E00
7F8E00
3F8E00
3F8E00
0F8E00
0F8E00
038E00
038E00
038E00
038E00
038E00
038E00
038E00
038E00
038E00
038E00
038E00
038E00
038E00
038E00
038E00
038E00
038E00
038E00
038E00
038E00
000000
000000
000000
000000
ENDCHAR

STARTCHAR periodcentered
ENCODING 183
SWIDTH 720 0
DWIDTH 18 0
BBX 18 50 0 -10
BITMAP
000000
000000
000000
000000
000000
000000
000000
000000
000000
000000
000000
000000
000000
000000
000000
000000
000000
000000
000000
000000
000000
000000
000000
000000
000000
03E000
07F000
07F000
07F000
03F000
03C000
03E000
000000
000000
000000
000000
000000
000000
000000
000000
000000
000000
000000
000000
000000
000000
000000
000000
000000
000000
ENDCHAR

STARTCHAR cedilla
ENCODING 184
SWIDTH 720 0
DWIDTH 18 0
BBX 18 50 0 -10
BITMAP
000000
000000
000000
000000
000000
000000
000000
000000
000000
000000
000000
000000
000000
000000
000000
000000
000000
000000
000000
000000
000000
000000
000000
000000
000000
000000
000000
000000
000000
000000
000000
000000
000000
000000
000000
000000
000000
000000
000000
000000
01C000
01C000
007000
003000
0FF000
01F000
060000
006000
000000
000000
ENDCHAR

STARTCHAR onesuperior
ENCODING 185
SWIDTH 720 0
DWIDTH 18 0
BBX 18 50 0 -10
BITMAP
000000
000000
000000
000000
000000
000000
000000
000000
000000
000000
01C000
01C000
03C000
03C000
05C000
05C000
01C000
01C000
01C000
01C000
01C000
01C000
01C000
01C000
01C000
01C000
03E000
03E000
000000
000000
000000
000000
000000
000000
000000
000000
000000
000000
000000
000000
000000
000000
000000
000000
000000
000000
000000
000000
000000
000000
ENDCHAR

STARTCHAR ordmasculine
ENCODING 186
SWIDTH 720 0
DWIDTH 18 0
BBX 18 50 0 -10
BITMAP
000000
000000
000000
000000
000000
000000
000000
000000
000000
000000
0FF800
0FF800
3FFE00
3FFE00
3C1E00
3C1E00
780F00
780F00
780F00
780F00
3C1E00
3C1E00
3FFE00
3FFE00
0FF800
0FF800
000000
000000
000000
000000
7FFF00
7FFF00
7FFF00
7FFF00
000000
000000
000000
000000
000000
000000
000000
000000
000000
000000
000000
000000
000000
000000
000000
000000
ENDCHAR

STARTCHAR guillemotright
ENCODING 187
SWIDTH 720 0
DWIDTH 18 0
BBX 18 50 0 -10
BITMAP
000000
000000
000000
000000
000000
000000
000000
000000
000000
000000
000000
000000
000000
000000
000000
000000
000000
000000
60C000
60C000
78F000
78F000
1C3800
1C3800
0F1E00
0F1E00
038700
038700
038700
038700
0F1E00
0F1E00
1C3800
1C3800
78F000
78F000
60C000
60C000
000000
000000
000000
000000
000000
000000
000000
000000
000000
000000
000000
000000
ENDCHAR

STARTCHAR onequarter
ENCODING 188
SWIDTH 720 0
DWIDTH 18 0
BBX 18 50 0 -10
BITMAP
000000
000000
000000
000000
000000
000000
000000
000000
000000
000000
1E0000
1E0000
3E0000
3E0000
5E0000
5E0000
1E0000
1E0000
1E0000
1E0000
1E0000
1E0000
1E0000
1E0000
3F0700
3F0700
003F00
003F00
01F800
01F800
0FC000
0FC000
7E0F00
7E0F00
701F00
701F00
007700
007700
00C700
00C700
01FF80
01FF80
000700
000700
000700
000700
000000
000000
000000
000000
ENDCHAR

STARTCHAR onehalf
ENCODING 189
SWIDTH 720 0
DWIDTH 18 0
BBX 18 50 0 -10
BITMAP
000000
000000
000000
000000
000000
000000
000000
000000
000000
000000
1E0000
1E0000
3E0000
3E0000
5E0000
5E0000
1E0000
1E0000
1E0000
1E0000
1E0000
1E0000
1E0000
1E0000
7F8700
7F8700
003F00
003F00
01F800
01F800
0F8000
0F8000
7E7E00
7E7E00
70C700
70C700
000F00
000F00
001E00
001E00
003800
003800
00F000
00F000
00FF00
00FF00
000000
000000
000000
000000
ENDCHAR

STARTCHAR threequarters
ENCODING 190
SWIDTH 720 0
DWIDTH 18 0
BBX 18 50 0 -10
BITMAP
000000
000000
000000
000000
000000
000000
000000
000000
000000
000000
FE0000
FE0000
FF8000
FF8000
078000
078000
7F0000
7F0000
078000
078000
078000
078000
FF8000
FF8000
FE0700
FE0700
003F00
003F00
01F800
01F800
07C000
07C000
3F1E00
3F1E00
3C3E00
3C3E00
00EE00
00EE00
018E00
018E00
03FF00
03FF00
000E00
000E00
000E00
000E00
000000
000000
000000
000000
ENDCHAR

STARTCHAR questiondown
ENCODING 191
SWIDTH 720 0
DWIDTH 18 0
BBX 18 50 0 -10
BITMAP
000000
000000
000000
000000
000000
000000
000000
000000
000000
000000
000000
000000
000000
000000
03E000
03E000
07F000
07F000
03E000
03E000
000000
000000
000000
000000
01E000
01E000
01E000
01E000
03E000
03E000
0FC000
0FC000
3F0000
3F0000
7E0000
7E0000
7C0F00
7C0F00
7C1F00
7C1F00
3FFE00
3FFE00
0FF800
0FF800
000000
000000
000000
000000
000000
000000
ENDCHAR

STARTCHAR Agrave
ENCODING 192
SWIDTH 720 0
DWIDTH 18 0
BBX 18 50 0 -10
BITMAP
7C0000
7C0000
1F0000
1F0000
07C000
07C000
000000
000000
000000
000000
018000
018000
07E000
07E000
07E000
07E000
0FF000
0FF000
1E7800
1E7800
1C3800
1C3800
3C3C00
3C3C00
3C3C00
3C3C00
381C00
381C00
7FFE00
7FFE00
7FFE00
7FFE00
781E00
781E00
781E00
781E00
781E00
781E00
781E00
781E00
000000
000000
000000
000000
000000
000000
000000
000000
000000
000000
ENDCHAR

STARTCHAR Aacute
ENCODING 193
SWIDTH 720 0
DWIDTH 18 0
BBX 18 50 0 -10
BITMAP
007C00
007C00
01F000
01F000
07C000
07C000
000000
000000
000000
000000
018000
018000
07E000
07E000
07E000
07E000
0FF000
0FF000
1E7800
1E7800
1C3800
1C3800
3C3C00
3C3C00
3C3C00
3C3C00
381C00
381C00
7FFE00
7FFE00
7FFE00
7FFE00
781E00
781E00
781E00
781E00
781E00
781E00
781E00
781E00
000000
000000
000000
000000
000000
000000
000000
000000
000000
000000
ENDCHAR

STARTCHAR Acircumflex
ENCODING 194
SWIDTH 720 0
DWIDTH 18 0
BBX 18 50 0 -10
BITMAP
03E000
03E000
07F000
07F000
0E3800
0E3800
0C1800
0C1800
000000
000000
018000
018000
07E000
07E000
07E000
07E000
0FF000
0FF000
1E7800
1E7800
1C3800
1C3800
3C3C00
3C3C00
3C3C00
3C3C00
381C00
381C00
7FFE00
7FFE00
7FFE00
7FFE00
781E00
781E00
781E00
781E00
781E00
781E00
781E00
781E00
000000
000000
000000
000000
000000
000000
000000
000000
000000
000000
ENDCHAR

STARTCHAR Atilde
ENCODING 195
SWIDTH 720 0
DWIDTH 18 0
BBX 18 50 0 -10
BITMAP
0F0C00
0F0C00
1F8C00
1F8C00
31F800
31F800
30F000
30F000
000000
000000
018000
018000
07E000
07E000
07E000
07E000
0FF000
0FF000
1E7800
1E7800
1C3800
1C3800
3C3C00
3C3C00
3C3C00
3C3C00
381C00
381C00
7FFE00
7FFE00
7FFE00
7FFE00
781E00
781E00
781E00
781E00
781E00
781E00
781E00
781E00
000000
000000
000000
000000
000000
000000
000000
000000
000000
000000
ENDCHAR

STARTCHAR Adieresis
ENCODING 196
SWIDTH 720 0
DWIDTH 18 0
BBX 18 50 0 -10
BITMAP
3C3C00
3C3C00
3C3C00
3C3C00
3C3C00
3C3C00
000000
000000
000000
000000
018000
018000
07E000
07E000
07E000
07E000
0FF000
0FF000
1E7800
1E7800
1C3800
1C3800
3C3C00
3C3C00
3C3C00
3C3C00
381C00
381C00
7FFE00
7FFE00
7FFE00
7FFE00
781E00
781E00
781E00
781E00
781E00
781E00
781E00
781E00
000000
000000
000000
000000
000000
000000
000000
000000
000000
000000
ENDCHAR

STARTCHAR Aring
ENCODING 197
SWIDTH 720 0
DWIDTH 18 0
BBX 18 50 0 -10
BITMAP
03C000
03C000
0E7000
0E7000
0E7000
0E7000
0E7000
0E7000
03C000
03C000
018000
018000
07E000
07E000
07E000
07E000
0FF000
0FF000
1E7800
1E7800
1C3800
1C3800
3C3C00
3C3C00
3C3C00
3C3C00
381C00
381C00
7FFE00
7FFE00
7FFE00
7FFE00
781E00
781E00
781E00
781E00
781E00
781E00
781E00
781E00
000000
000000
000000
000000
000000
000000
000000
000000
000000
000000
ENDCHAR

STARTCHAR AE
ENCODING 198
SWIDTH 720 0
DWIDTH 18 0
BBX 18 50 0 -10
BITMAP
000000
000000
000000
000000
000000
000000
000000
000000
000000
000000
03FF80
03FF80
07FF80
07FF80
0FF000
0FF000
1CF000
1CF000
1CF000
1CF000
38F000
38F000
38FF80
38FF80
70FF80
70FF80
70F000
70F000
7FF000
7FF000
FFF000
FFF000
F0F000
F0F000
F0F000
F0F000
F0FF80
F0FF80
F0FF80
F0FF80
000000
000000
000000
000000
000000
000000
000000
000000
000000
000000
ENDCHAR

STARTCHAR Ccedilla
ENCODING 199
SWIDTH 720 0
DWIDTH 18 0
BBX 18 50 0 -10
BITMAP
000000
000000
000000
000000
000000
000000
000000
000000
000000
000000
07F700
07F700
1FFF00
1FFF00
3C0F00
3C0F00
380F00
380F00
780000
780000
780000
780000
780000
780000
780000
780000
780000
780000
780000
780000
780000
780000
380000
380000
3C0F00
3C0F00
1FFF00
1FFF00
07F800
07F800
00F000
00F000
003800
003800
07F800
07F800
03F000
03F000
000000
000000
ENDCHAR

STARTCHAR Egrave
ENCODING 200
SWIDTH 720 0
DWIDTH 18 0
BBX 18 50 0 -10
BITMAP
3E0000
3E0000
0F8000
0F8000
03E000
03E000
000000
000000
000000
000000
7FFF00
7FFF00
7FFF00
7FFF00
780000
780000
780000
780000
780000
780000
780000
780000
7FF800
7FF800
7FF800
7FF800
780000
780000
780000
780000
780000
780000
780000
780000
780000
780000
7FFF00
7FFF00
7FFF00
7FFF00
000000
000000
000000
000000
000000
000000
000000
000000
000000
000000
ENDCHAR

STARTCHAR Eacute
ENCODING 201
SWIDTH 720 0
DWIDTH 18 0
BBX 18 50 0 -10
BITMAP
003E00
003E00
00F800
00F800
03E000
03E000
000000
000000
000000
000000
7FFF00
7FFF00
7FFF00
7FFF00
780000
780000
780000
780000
780000
780000
780000
780000
7FF800
7FF800
7FF800
7FF800
780000
780000
780000
780000
780000
780000
780000
780000
780000
780000
7FFF00
7FFF00
7FFF00
7FFF00
000000
000000
000000
000000
000000
000000
000000
000000
000000
000000
ENDCHAR

STARTCHAR Ecircumflex
ENCODING 202
SWIDTH 720 0
DWIDTH 18 0
BBX 18 50 0 -10
BITMAP
03E000
03E000
07F000
07F000
0E3800
0E3800
0C1800
0C1800
000000
000000
7FFF00
7FFF00
7FFF00
7FFF00
780000
780000
780000
780000
780000
780000
780000
780000
7FF800
7FF800
7FF800
7FF800
780000
780000
780000
780000
780000
780000
780000
780000
780000
780000
7FFF00
7FFF00
7FFF00
7FFF00
000000
000000
000000
000000
000000
000000
000000
000000
000000
000000
ENDCHAR

STARTCHAR Edieresis
ENCODING 203
SWIDTH 720 0
DWIDTH 18 0
BBX 18 50 0 -10
BITMAP
1E1E00
1E1E00
1E1E00
1E1E00
1E1E00
1E1E00
000000
000000
000000
000000
7FFF00
7FFF00
7FFF00
7FFF00
780000
780000
780000
780000
780000
780000
780000
780000
7FF800
7FF800
7FF800
7FF800
780000
780000
780000
780000
780000
780000
780000
780000
780000
780000
7FFF00
7FFF00
7FFF00
7FFF00
000000
000000
000000
000000
000000
000000
000000
000000
000000
000000
ENDCHAR

STARTCHAR Igrave
ENCODING 204
SWIDTH 720 0
DWIDTH 18 0
BBX 18 50 0 -10
BITMAP
1F0000
1F0000
07C000
07C000
01F000
01F000
000000
000000
000000
000000
7FFE00
7FFE00
7FFE00
7FFE00
03C000
03C000
03C000
03C000
03C000
03C000
03C000
03C000
03C000
03C000
03C000
03C000
03C000
03C000
03C000
03C000
03C000
03C000
03C000
03C000
03C000
03C000
7FFE00
7FFE00
7FFE00
7FFE00
000000
000000
000000
000000
000000
000000
000000
000000
000000
000000
ENDCHAR

STARTCHAR Iacute
ENCODING 205
SWIDTH 720 0
DWIDTH 18 0
BBX 18 50 0 -10
BITMAP
007C00
007C00
01F000
01F000
07C000
07C000
000000
000000
000000
000000
7FFE00
7FFE00
7FFE00
7FFE00
03C000
03C000
03C000
03C000
03C000
03C000
03C000
03C000
03C000
03C000
03C000
03C000
03C000
03C000
03C000
03C000
03C000
03C000
03C000
03C000
03C000
03C000
7FFE00
7FFE00
7FFE00
7FFE00
000000
000000
000000
000000
000000
000000
000000
000000
000000
000000
ENDCHAR

STARTCHAR Icircumflex
ENCODING 206
SWIDTH 720 0
DWIDTH 18 0
BBX 18 50 0 -10
BITMAP
03E000
03E000
07F000
07F000
0E3800
0E3800
0C1800
0C1800
000000
000000
7FFE00
7FFE00
7FFE00
7FFE00
03C000
03C000
03C000
03C000
03C000
03C000
03C000
03C000
03C000
03C000
03C000
03C000
03C000
03C000
03C000
03C000
03C000
03C000
03C000
03C000
03C000
03C000
7FFE00
7FFE00
7FFE00
7FFE00
000000
000000
000000
000000
000000
000000
000000
000000
000000
000000
ENDCHAR

STARTCHAR Idieresis
ENCODING 207
SWIDTH 720 0
DWIDTH 18 0
BBX 18 50 0 -10
BITMAP
3C3C00
3C3C00
3C3C00
3C3C00
3C3C00
3C3C00
000000
000000
000000
000000
7FFE00
7FFE00
7FFE00
7FFE00
03C000
03C000
03C000
03C000
03C000
03C000
03C000
03C000
03C000
03C000
03C000
03C000
03C000
03C000
03C000
03C000
03C000
03C000
03C000
03C000
03C000
03C000
7FFE00
7FFE00
7FFE00
7FFE00
000000
000000
000000
000000
000000
000000
000000
000000
000000
000000
ENDCHAR

STARTCHAR Eth
ENCODING 208
SWIDTH 720 0
DWIDTH 18 0
BBX 18 50 0 -10
BITMAP
000000
000000
000000
000000
000000
000000
000000
000000
000000
000000
7FF000
7FF000
7FFC00
7FFC00
783E00
783E00
781E00
781E00
781F00
781F00
780F00
780F00
FF0F00
FF0F00
FF0F00
FF0F00
780F00
780F00
780F00
780F00
781F00
781F00
781E00
781E00
783E00
783E00
7FFC00
7FFC00
7FF000
7FF000
000000
000000
000000
000000
000000
000000
000000
000000
000000
000000
ENDCHAR

STARTCHAR Ntilde
ENCODING 209
SWIDTH 720 0
DWIDTH 18 0
BBX 18 50 0 -10
BITMAP
078600
078600
0FC600
0FC600
18FC00
18FC00
187800
187800
000000
000000
7C0F00
7C0F00
7C0F00
7C0F00
7E0F00
7E0F00
7F0F00
7F0F00
7F0F00
7F0F00
7F8F00
7F8F00
7B8F00
7B8F00
79CF00
79CF00
78EF00
78EF00
78FF00
78FF00
787F00
787F00
783F00
783F00
783F00
783F00
781F00
781F00
781F00
781F00
000000
000000
000000
000000
000000
000000
000000
000000
000000
000000
ENDCHAR

STARTCHAR Ograve
ENCODING 210
SWIDTH 720 0
DWIDTH 18 0
BBX 18 50 0 -10
BITMAP
3E0000
3E0000
0F8000
0F8000
03E000
03E000
000000
000000
000000
000000
07F000
07F000
3FFE00
3FFE00
3C1E00
3C1E00
780F00
780F00
780F00
780F00
780F00
780F00
780F00
780F00
780F00
780F00
780F00
780F00
780F00
780F00
780F00
780F00
780F00
780F00
3C1E00
3C1E00
3FFE00
3FFE00
07F000
07F000
000000
000000
000000
000000
000000
000000
000000
000000
000000
000000
ENDCHAR

STARTCHAR Oacute
ENCODING 211
SWIDTH 720 0
DWIDTH 18 0
BBX 18 50 0 -10
BITMAP
003E00
003E00
00F800
00F800
03E000
03E000
000000
000000
000000
000000
07F000
07F000
3FFE00
3FFE00
3C1E00
3C1E00
780F00
780F00
780F00
780F00
780F00
780F00
780F00
780F00
780F00
780F00
780F00
780F00
780F00
780F00
780F00
780F00
780F00
780F00
3C1E00
3C1E00
3FFE00
3FFE00
07F000
07F000
000000
000000
000000
000000
000000
000000
000000
000000
000000
000000
ENDCHAR

STARTCHAR Ocircumflex
ENCODING 212
SWIDTH 720 0
DWIDTH 18 0
BBX 18 50 0 -10
BITMAP
03E000
03E000
07F000
07F000
0E3800
0E3800
0C1800
0C1800
000000
000000
07F000
07F000
3FFE00
3FFE00
3C1E00
3C1E00
780F00
780F00
780F00
780F00
780F00
780F00
780F00
780F00
780F00
780F00
780F00
780F00
780F00
780F00
780F00
780F00
780F00
780F00
3C1E00
3C1E00
3FFE00
3FFE00
07F000
07F000
000000
000000
000000
000000
000000
000000
000000
000000
000000
000000
ENDCHAR

STARTCHAR Otilde
ENCODING 213
SWIDTH 720 0
DWIDTH 18 0
BBX 18 50 0 -10
BITMAP
078600
078600
0FC600
0FC600
18FC00
18FC00
187800
187800
000000
000000
07F000
07F000
3FFE00
3FFE00
3C1E00
3C1E00
780F00
780F00
780F00
780F00
780F00
780F00
780F00
780F00
780F00
780F00
780F00
780F00
780F00
780F00
780F00
780F00
780F00
780F00
3C1E00
3C1E00
3FFE00
3FFE00
07F000
07F000
000000
000000
000000
000000
000000
000000
000000
000000
000000
000000
ENDCHAR

STARTCHAR Odieresis
ENCODING 214
SWIDTH 720 0
DWIDTH 18 0
BBX 18 50 0 -10
BITMAP
1E1E00
1E1E00
1E1E00
1E1E00
1E1E00
1E1E00
000000
000000
000000
000000
07F000
07F000
3FFE00
3FFE00
3C1E00
3C1E00
780F00
780F00
780F00
780F00
780F00
780F00
780F00
780F00
780F00
780F00
780F00
780F00
780F00
780F00
780F00
780F00
780F00
780F00
3C1E00
3C1E00
3FFE00
3FFE00
07F000
07F000
000000
000000
000000
000000
000000
000000
000000
000000
000000
000000
ENDCHAR

STARTCHAR multiply
ENCODING 215
SWIDTH 720 0
DWIDTH 18 0
BBX 18 50 0 -10
BITMAP
000000
000000
000000
000000
000000
000000
000000
000000
000000
000000
000000
000000
000000
000000
000000
000000
000000
000000
000000
000000
700700
700700
7C1F00
7C1F00
1F7C00
1F7C00
03E000
03E000
07F000
07F000
1F7C00
1F7C00
7C1F00
7C1F00
700700
700700
000000
000000
000000
000000
000000
000000
000000
000000
000000
000000
000000
000000
000000
000000
ENDCHAR

STARTCHAR Oslash
ENCODING 216
SWIDTH 720 0
DWIDTH 18 0
BBX 18 50 0 -10
BITMAP
000000
000000
000000
000000
000000
000000
000000
000000
000300
000300
07F300
07F300
3FFE00
3FFE00
3C1E00
3C1E00
781F00
781F00
783F00
783F00
786F00
786F00
78CF00
78CF00
79CF00
79CF00
798F00
798F00
7B0F00
7B0F00
7E0F00
7E0F00
7C0F00
7C0F00
3C1E00
3C1E00
3FFE00
3FFE00
67F000
67F000
600000
600000
000000
000000
000000
000000
000000
000000
000000
000000
ENDCHAR

STARTCHAR Ugrave
ENCODING 217
SWIDTH 720 0
DWIDTH 18 0
BBX 18 50 0 -10
BITMAP
3E0000
3E0000
0F8000
0F8000
03E000
03E000
000000
000000
000000
000000
780F00
780F00
780F00
780F00
780F00
780F00
780F00
780F00
780F00
780F00
780F00
780F00
780F00
780F00
780F00
780F00
780F00
780F00
780F00
780F00
780F00
780F00
780F00
780F00
7C1F00
7C1F00
3FFE00
3FFE00
0FF800
0FF800
000000
000000
000000
000000
000000
000000
000000
000000
000000
000000
ENDCHAR

STARTCHAR Uacute
ENCODING 218
SWIDTH 720 0
DWIDTH 18 0
BBX 18 50 0 -10
BITMAP
003E00
003E00
00F800
00F800
03E000
03E000
000000
000000
000000
000000
780F00
780F00
780F00
780F00
780F00
780F00
780F00
780F00
780F00
780F00
780F00
780F00
780F00
780F00
780F00
780F00
780F00
780F00
780F00
780F00
780F00
780F00
780F00
780F00
7C1F00
7C1F00
3FFE00
3FFE00
0FF800
0FF800
000000
000000
000000
000000
000000
000000
000000
000000
000000
000000
ENDCHAR

STARTCHAR Ucircumflex
ENCODING 219
SWIDTH 720 0
DWIDTH 18 0
BBX 18 50 0 -10
BITMAP
03E000
03E000
07F000
07F000
0E3800
0E3800
0C1800
0C1800
000000
000000
780F00
780F00
780F00
780F00
780F00
780F00
780F00
780F00
780F00
780F00
780F00
780F00
780F00
780F00
780F00
780F00
780F00
780F00
780F00
780F00
780F00
780F00
780F00
780F00
7C1F00
7C1F00
3FFE00
3FFE00
0FF800
0FF800
000000
000000
000000
000000
000000
000000
000000
000000
000000
000000
ENDCHAR

STARTCHAR Udieresis
ENCODING 220
SWIDTH 720 0
DWIDTH 18 0
BBX 18 50 0 -10
BITMAP
1E1E00
1E1E00
1E1E00
1E1E00
1E1E00
1E1E00
000000
000000
000000
000000
780F00
780F00
780F00
780F00
780F00
780F00
780F00
780F00
780F00
780F00
780F00
780F00
780F00
780F00
780F00
780F00
780F00
780F00
780F00
780F00
780F00
780F00
780F00
780F00
7C1F00
7C1F00
3FFE00
3FFE00
0FF800
0FF800
000000
000000
000000
000000
000000
000000
000000
000000
000000
000000
ENDCHAR

STARTCHAR Yacute
ENCODING 221
SWIDTH 720 0
DWIDTH 18 0
BBX 18 50 0 -10
BITMAP
007C00
007C00
01F000
01F000
07C000
07C000
000000
000000
000000
000000
7C0F80
7C0F80
7C0F80
7C0F80
3C0F00
3C0F00
3E1F00
3E1F00
1E1E00
1E1E00
0F3C00
0F3C00
07F800
07F800
03F000
03F000
01E000
01E000
01E000
01E000
01E000
01E000
01E000
01E000
01E000
01E000
01E000
01E000
01E000
01E000
000000
000000
000000
000000
000000
000000
000000
000000
000000
000000
ENDCHAR

STARTCHAR Thorn
ENCODING 222
SWIDTH 720 0
DWIDTH 18 0
BBX 18 50 0 -10
BITMAP
000000
000000
000000
000000
000000
000000
000000
000000
000000
000000
7C0000
7C0000
7C0000
7C0000
7C0000
7C0000
7FF800
7FF800
7FFE00
7FFE00
7C1F00
7C1F00
7C0F00
7C0F00
7C0F00
7C0F00
7C0F00
7C0F00
7C1F00
7C1F00
7FFE00
7FFE00
7FF800
7FF800
7C0000
7C0000
7C0000
7C0000
7C0000
7C0000
000000
000000
000000
000000
000000
000000
000000
000000
000000
000000
ENDCHAR

STARTCHAR germandbls
ENCODING 223
SWIDTH 720 0
DWIDTH 18 0
BBX 18 50 0 -10
BITMAP
000000
000000
000000
000000
000000
000000
000000
000000
000000
000000
0FF800
0FF800
3FFE00
3FFE00
3C1F00
3C1F00
780F00
780F00
780F00
780F00
781E00
781E00
79F800
79F800
79FE00
79FE00
781F00
781F00
780F00
780F00
780F00
780F00
780F00
780F00
781F00
781F00
79FE00
79FE00
79F800
79F800
000000
000000
000000
000000
000000
000000
000000
000000
000000
000000
ENDCHAR

STARTCHAR agrave
ENCODING 224
SWIDTH 720 0
DWIDTH 18 0
BBX 18 50 0 -10
BITMAP
000000
000000
000000
000000
000000
000000
3E0000
3E0000
0F8000
0F8000
03E000
03E000
000000
000000
000000
000000
1FF000
1FF000
3FFC00
3FFC00
003C00
003C00
001E00
001E00
0FFE00
0FFE00
3FFE00
3FFE00
7E1E00
7E1E00
7C1E00
7C1E00
7C1E00
7C1E00
7E3E00
7E3E00
3FFE00
3FFE00
0FDE00
0FDE00
000000
000000
000000
000000
000000
000000
000000
000000
000000
000000
ENDCHAR

STARTCHAR aacute
ENCODING 225
SWIDTH 720 0
DWIDTH 18 0
BBX 18 50 0 -10
BITMAP
000000
000000
000000
000000
000000
000000
001F00
001F00
00FC00
00FC00
03E000
03E000
000000
000000
000000
000000
1FF000
1FF000
3FFC00
3FFC00
003C00
003C00
001E00
001E00
0FFE00
0FFE00
3FFE00
3FFE00
7E1E00
7E1E00
7C1E00
7C1E00
7C1E00
7C1E00
7E3E00
7E3E00
3FFE00
3FFE00
0FDE00
0FDE00
000000
000000
000000
000000
000000
000000
000000
000000
000000
000000
ENDCHAR

STARTCHAR acircumflex
ENCODING 226
SWIDTH 720 0
DWIDTH 18 0
BBX 18 50 0 -10
BITMAP
000000
000000
000000
000000
03E000
03E000
07F000
07F000
0E3800
0E3800
0C1800
0C1800
000000
000000
000000
000000
1FF000
1FF000
3FFC00
3FFC00
003C00
003C00
001E00
001E00
0FFE00
0FFE00
3FFE00
3FFE00
7E1E00
7E1E00
7C1E00
7C1E00
7C1E00
7C1E00
7E3E00
7E3E00
3FFE00
3FFE00
0FDE00
0FDE00
000000
000000
000000
000000
000000
000000
000000
000000
000000
000000
ENDCHAR

STARTCHAR atilde
ENCODING 227
SWIDTH 720 0
DWIDTH 18 0
BBX 18 50 0 -10
BITMAP
000000
000000
000000
000000
078600
078600
0FC600
0FC600
18FC00
18FC00
187800
187800
000000
000000
000000
000000
1FF000
1FF000
3FFC00
3FFC00
003C00
003C00
001E00
001E00
0FFE00
0FFE00
3FFE00
3FFE00
7E1E00
7E1E00
7C1E00
7C1E00
7C1E00
7C1E00
7E3E00
7E3E00
3FFE00
3FFE00
0FDE00
0FDE00
000000
000000
000000
000000
000000
000000
000000
000000
000000
000000
ENDCHAR

STARTCHAR adieresis
ENCODING 228
SWIDTH 720 0
DWIDTH 18 0
BBX 18 50 0 -10
BITMAP
000000
000000
000000
000000
000000
000000
1E1E00
1E1E00
1E1E00
1E1E00
1E1E00
1E1E00
000000
000000
000000
000000
1FF000
1FF000
3FFC00
3FFC00
003C00
003C00
001E00
001E00
0FFE00
0FFE00
3FFE00
3FFE00
7E1E00
7E1E00
7C1E00
7C1E00
7C1E00
7C1E00
7E3E00
7E3E00
3FFE00
3FFE00
0FDE00
0FDE00
000000
000000
000000
000000
000000
000000
000000
000000
000000
000000
ENDCHAR

STARTCHAR aring
ENCODING 229
SWIDTH 720 0
DWIDTH 18 0
BBX 18 50 0 -10
BITMAP
000000
000000
000000
000000
01E000
01E000
073800
073800
073800
073800
073800
073800
01E000
01E000
000000
000000
1FF000
1FF000
3FFC00
3FFC00
003C00
003C00
001E00
001E00
0FFE00
0FFE00
3FFE00
3FFE00
7E1E00
7E1E00
7C1E00
7C1E00
7C1E00
7C1E00
7E3E00
7E3E00
3FFE00
3FFE00
0FDE00
0FDE00
000000
000000
000000
000000
000000
000000
000000
000000
000000
000000
ENDCHAR

STARTCHAR ae
ENCODING 230
SWIDTH 720 0
DWIDTH 18 0
BBX 18 50 0 -10
BITMAP
000000
000000
000000
000000
000000
000000
000000
000000
000000
000000
000000
000000
000000
000000
000000
000000
1F3C00
1F3C00
7FFF00
7FFF00
03CF00
03CF00
01C780
01C780
01C780
01C780
1FFF80
1FFF80
7FFF80
7FFF80
F1C000
F1C000
F1C000
F1C000
F1E380
F1E380
7FFF80
7FFF80
3E7E00
3E7E00
000000
000000
000000
000000
000000
000000
000000
000000
000000
000000
ENDCHAR

STARTCHAR ccedilla
ENCODING 231
SWIDTH 720 0
DWIDTH 18 0
BBX 18 50 0 -10
BITMAP
000000
000000
000000
000000
000000
000000
000000
000000
000000
000000
000000
000000
000000
000000
000000
000000
0FEE00
0FEE00
3FFE00
3FFE00
3C3E00
3C3E00
781E00
781E00
780000
780000
780000
780000
780000
780000
780000
780000
780000
780000
3C1E00
3C1E00
3FFE00
3FFE00
0FF800
0FF800
01F000
01F000
003800
003800
07F800
07F800
03F000
03F000
000000
000000
ENDCHAR

STARTCHAR egrave
ENCODING 232
SWIDTH 720 0
DWIDTH 18 0
BBX 18 50 0 -10
BITMAP
000000
000000
000000
000000
000000
000000
3E0000
3E0000
0F8000
0F8000
03E000
03E000
000000
000000
000000
000000
0FF000
0FF000
3FFC00
3FFC00
3C3C00
3C3C00
781E00
781E00
781E00
781E00
7FFE00
7FFE00
7FFE00
7FFE00
780000
780000
780000
780000
3C1E00
3C1E00
3FFE00
3FFE00
0FF800
0FF800
000000
000000
000000
000000
000000
000000
000000
000000
000000
000000
ENDCHAR

STARTCHAR eacute
ENCODING 233
SWIDTH 720 0
DWIDTH 18 0
BBX 18 50 0 -10
BITMAP
000000
000000
000000
000000
000000
000000
003E00
003E00
00F800
00F800
03E000
03E000
000000
000000
000000
000000
0FF000
0FF000
3FFC00
3FFC00
3C3C00
3C3C00
781E00
781E00
781E00
781E00
7FFE00
7FFE00
7FFE00
7FFE00
780000
780000
780000
780000
3C1E00
3C1E00
3FFE00
3FFE00
0FF800
0FF800
000000
000000
000000
000000
000000
000000
000000
000000
000000
000000
ENDCHAR

STARTCHAR ecircumflex
ENCODING 234
SWIDTH 720 0
DWIDTH 18 0
BBX 18 50 0 -10
BITMAP
000000
000000
000000
000000
03E000
03E000
07F000
07F000
0E3800
0E3800
0C1800
0C1800
000000
000000
000000
000000
0FF000
0FF000
3FFC00
3FFC00
3C3C00
3C3C00
781E00
781E00
781E00
781E00
7FFE00
7FFE00
7FFE00
7FFE00
780000
780000
780000
780000
3C1E00
3C1E00
3FFE00
3FFE00
0FF800
0FF800
000000
000000
000000
000000
000000
000000
000000
000000
000000
000000
ENDCHAR

STARTCHAR edieresis
ENCODING 235
SWIDTH 720 0
DWIDTH 18 0
BBX 18 50 0 -10
BITMAP
000000
000000
000000
000000
000000
000000
1E1E00
1E1E00
1E1E00
1E1E00
1E1E00
1E1E00
000000
000000
000000
000000
0FF000
0FF000
3FFC00
3FFC00
3C3C00
3C3C00
781E00
781E00
781E00
781E00
7FFE00
7FFE00
7FFE00
7FFE00
780000
780000
780000
780000
3C1E00
3C1E00
3FFE00
3FFE00
0FF800
0FF800
000000
000000
000000
000000
000000
000000
000000
000000
000000
000000
ENDCHAR

STARTCHAR igrave
ENCODING 236
SWIDTH 720 0
DWIDTH 18 0
BBX 18 50 0 -10
BITMAP
000000
000000
000000
000000
000000
000000
7C0000
7C0000
1F0000
1F0000
07C000
07C000
000000
000000
000000
000000
1FE000
1FE000
1FE000
1FE000
01E000
01E000
01E000
01E000
01E000
01E000
01E000
01E000
01E000
01E000
01E000
01E000
01E000
01E000
01E000
01E000
3FFF00
3FFF00
3FFF00
3FFF00
000000
000000
000000
000000
000000
000000
000000
000000
000000
000000
ENDCHAR

STARTCHAR iacute
ENCODING 237
SWIDTH 720 0
DWIDTH 18 0
BBX 18 50 0 -10
BITMAP
000000
000000
000000
000000
000000
000000
007C00
007C00
01F000
01F000
07C000
07C000
000000
000000
000000
000000
1FE000
1FE000
1FE000
1FE000
01E000
01E000
01E000
01E000
01E000
01E000
01E000
01E000
01E000
01E000
01E000
01E000
01E000
01E000
01E000
01E000
3FFF00
3FFF00
3FFF00
3FFF00
000000
000000
000000
000000
000000
000000
000000
000000
000000
000000
ENDCHAR

STARTCHAR icircumflex
ENCODING 238
SWIDTH 720 0
DWIDTH 18 0
BBX 18 50 0 -10
BITMAP
000000
000000
000000
000000
01F000
01F000
03F800
03F800
071C00
071C00
060C00
060C00
000000
000000
000000
000000
1FE000
1FE000
1FE000
1FE000
01E000
01E000
01E000
01E000
01E000
01E000
01E000
01E000
01E000
01E000
01E000
01E000
01E000
01E000
01E000
01E000
3FFF00
3FFF00
3FFF00
3FFF00
000000
000000
000000
000000
000000
000000
000000
000000
000000
000000
ENDCHAR

STARTCHAR idieresis
ENCODING 239
SWIDTH 720 0
DWIDTH 18 0
BBX 18 50 0 -10
BITMAP
000000
000000
000000
000000
000000
000000
3C3C00
3C3C00
3C3C00
3C3C00
3C3C00
3C3C00
000000
000000
000000
000000
1FE000
1FE000
1FE000
1FE000
01E000
01E000
01E000
01E000
01E000
01E000
01E000
01E000
01E000
01E000
01E000
01E000
01E000
01E000
01E000
01E000
3FFF00
3FFF00
3FFF00
3FFF00
000000
000000
000000
000000
000000
000000
000000
000000
000000
000000
ENDCHAR

STARTCHAR eth
ENCODING 240
SWIDTH 720 0
DWIDTH 18 0
BBX 18 50 0 -10
BITMAP
000000
000000
000000
000000
1C0000
1C0000
0F7800
0F7800
03E000
03E000
0FC000
0FC000
1CF000
1CF000
007800
007800
0FFC00
0FFC00
3FFE00
3FFE00
3C1E00
3C1E00
780F00
780F00
780F00
780F00
780F00
780F00
780F00
780F00
780F00
780F00
780F00
780F00
3C1E00
3C1E00
3FFE00
3FFE00
0FF800
0FF800
000000
000000
000000
000000
000000
000000
000000
000000
000000
000000
ENDCHAR

STARTCHAR ntilde
ENCODING 241
SWIDTH 720 0
DWIDTH 18 0
BBX 18 50 0 -10
BITMAP
000000
000000
000000
000000
0F0C00
0F0C00
1F8C00
1F8C00
31F800
31F800
30F000
30F000
000000
000000
000000
000000
79F000
79F000
7FFC00
7FFC00
7E3C00
7E3C00
7C1E00
7C1E00
781E00
781E00
781E00
781E00
781E00
781E00
781E00
781E00
781E00
781E00
781E00
781E00
781E00
781E00
781E00
781E00
000000
000000
000000
000000
000000
000000
000000
000000
000000
000000
ENDCHAR

STARTCHAR ograve
ENCODING 242
SWIDTH 720 0
DWIDTH 18 0
BBX 18 50 0 -10
BITMAP
000000
000000
000000
000000
000000
000000
3E0000
3E0000
0F8000
0F8000
03E000
03E000
000000
000000
000000
000000
0FF000
0FF000
3FFC00
3FFC00
3C3C00
3C3C00
781E00
781E00
781E00
781E00
781E00
781E00
781E00
781E00
781E00
781E00
781E00
781E00
3C3C00
3C3C00
3FFC00
3FFC00
0FF000
0FF000
000000
000000
000000
000000
000000
000000
000000
000000
000000
000000
ENDCHAR

STARTCHAR oacute
ENCODING 243
SWIDTH 720 0
DWIDTH 18 0
BBX 18 50 0 -10
BITMAP
000000
000000
000000
000000
000000
000000
003E00
003E00
00F800
00F800
03E000
03E000
000000
000000
000000
000000
0FF000
0FF000
3FFC00
3FFC00
3C3C00
3C3C00
781E00
781E00
781E00
781E00
781E00
781E00
781E00
781E00
781E00
781E00
781E00
781E00
3C3C00
3C3C00
3FFC00
3FFC00
0FF000
0FF000
000000
000000
000000
000000
000000
000000
000000
000000
000000
000000
ENDCHAR

STARTCHAR ocircumflex
ENCODING 244
SWIDTH 720 0
DWIDTH 18 0
BBX 18 50 0 -10
BITMAP
000000
000000
000000
000000
03E000
03E000
07F000
07F000
0E3800
0E3800
0C1800
0C1800
000000
000000
000000
000000
0FF000
0FF000
3FFC00
3FFC00
3C3C00
3C3C00
781E00
781E00
781E00
781E00
781E00
781E00
781E00
781E00
781E00
781E00
781E00
781E00
3C3C00
3C3C00
3FFC00
3FFC00
0FF000
0FF000
000000
000000
000000
000000
000000
000000
000000
000000
000000
000000
ENDCHAR

STARTCHAR otilde
ENCODING 245
SWIDTH 720 0
DWIDTH 18 0
BBX 18 50 0 -10
BITMAP
000000
000000
000000
000000
0F0C00
0F0C00
1F8C00
1F8C00
31F800
31F800
30F000
30F000
000000
000000
000000
000000
0FF000
0FF000
3FFC00
3FFC00
3C3C00
3C3C00
781E00
781E00
781E00
781E00
781E00
781E00
781E00
781E00
781E00
781E00
781E00
781E00
3C3C00
3C3C00
3FFC00
3FFC00
0FF000
0FF000
000000
000000
000000
000000
000000
000000
000000
000000
000000
000000
ENDCHAR

STARTCHAR odieresis
ENCODING 246
SWIDTH 720 0
DWIDTH 18 0
BBX 18 50 0 -10
BITMAP
000000
000000
000000
000000
000000
000000
1E1E00
1E1E00
1E1E00
1E1E00
1E1E00
1E1E00
000000
000000
000000
000000
0FF000
0FF000
3FFC00
3FFC00
3C3C00
3C3C00
781E00
781E00
781E00
781E00
781E00
781E00
781E00
781E00
781E00
781E00
781E00
781E00
3C3C00
3C3C00
3FFC00
3FFC00
0FF000
0FF000
000000
000000
000000
000000
000000
000000
000000
000000
000000
000000
ENDCHAR

STARTCHAR divide
ENCODING 247
SWIDTH 720 0
DWIDTH 18 0
BBX 18 50 0 -10
BITMAP
000000
000000
000000
000000
000000
000000
000000
000000
000000
000000
000000
000000
000000
000000
000000
000000
01C000
01C000
03E000
03E000
01C000
01C000
000000
000000
000000
000000
7FFF00
7FFF00
7FFF00
7FFF00
000000
000000
000000
000000
01C000
01C000
03E000
03E000
01C000
01C000
000000
000000
000000
000000
000000
000000
000000
000000
000000
000000
ENDCHAR

STARTCHAR oslash
ENCODING 248
SWIDTH 720 0
DWIDTH 18 0
BBX 18 50 0 -10
BITMAP
000000
000000
000000
000000
000000
000000
000000
000000
000000
000000
000000
000000
000000
000000
000600
000600
0FF600
0FF600
3FFC00
3FFC00
3C3C00
3C3C00
787E00
787E00
78DE00
78DE00
799E00
799E00
791E00
791E00
7B1E00
7B1E00
7E1E00
7E1E00
3C3C00
3C3C00
3FFC00
3FFC00
6FF000
6FF000
600000
600000
000000
000000
000000
000000
000000
000000
000000
000000
ENDCHAR

STARTCHAR ugrave
ENCODING 249
SWIDTH 720 0
DWIDTH 18 0
BBX 18 50 0 -10
BITMAP
000000
000000
000000
000000
000000
000000
3E0000
3E0000
0F8000
0F8000
03E000
03E000
000000
000000
000000
000000
781E00
781E00
781E00
781E00
781E00
781E00
781E00
781E00
781E00
781E00
781E00
781E00
781E00
781E00
781E00
781E00
781E00
781E00
3C3E00
3C3E00
3FFE00
3FFE00
07DE00
07DE00
000000
000000
000000
000000
000000
000000
000000
000000
000000
000000
ENDCHAR

STARTCHAR uacute
ENCODING 250
SWIDTH 720 0
DWIDTH 18 0
BBX 18 50 0 -10
BITMAP
000000
000000
000000
000000
000000
000000
003E00
003E00
00F800
00F800
03E000
03E000
000000
000000
000000
000000
781E00
781E00
781E00
781E00
781E00
781E00
781E00
781E00
781E00
781E00
781E00
781E00
781E00
781E00
781E00
781E00
781E00
781E00
3C3E00
3C3E00
3FFE00
3FFE00
07DE00
07DE00
000000
000000
000000
000000
000000
000000
000000
000000
000000
000000
ENDCHAR

STARTCHAR ucircumflex
ENCODING 251
SWIDTH 720 0
DWIDTH 18 0
BBX 18 50 0 -10
BITMAP
000000
000000
000000
000000
03E000
03E000
07F000
07F000
0E3800
0E3800
0C1800
0C1800
000000
000000
000000
000000
781E00
781E00
781E00
781E00
781E00
781E00
781E00
781E00
781E00
781E00
781E00
781E00
781E00
781E00
781E00
781E00
781E00
781E00
3C3E00
3C3E00
3FFE00
3FFE00
07DE00
07DE00
000000
000000
000000
000000
000000
000000
000000
000000
000000
000000
ENDCHAR

STARTCHAR udieresis
ENCODING 252
SWIDTH 720 0
DWIDTH 18 0
BBX 18 50 0 -10
BITMAP
000000
000000
000000
000000
000000
000000
3C3C00
3C3C00
3C3C00
3C3C00
3C3C00
3C3C00
000000
000000
000000
000000
781E00
781E00
781E00
781E00
781E00
781E00
781E00
781E00
781E00
781E00
781E00
781E00
781E00
781E00
781E00
781E00
781E00
781E00
3C3E00
3C3E00
3FFE00
3FFE00
07DE00
07DE00
000000
000000
000000
000000
000000
000000
000000
000000
000000
000000
ENDCHAR

STARTCHAR yacute
ENCODING 253
SWIDTH 720 0
DWIDTH 18 0
BBX 18 50 0 -10
BITMAP
000000
000000
000000
000000
000000
000000
007C00
007C00
01F000
01F000
07C000
07C000
000000
000000
000000
000000
7C1F00
7C1F00
7C1F00
7C1F00
3C1E00
3C1E00
3E3E00
3E3E00
1E3C00
1E3C00
1E3800
1E3800
0E3800
0E3800
077000
077000
077000
077000
07F000
07F000
03E000
03E000
03E000
03E000
03C000
03C000
03C000
03C000
078000
078000
078000
078000
078000
078000
ENDCHAR

STARTCHAR thorn
ENCODING 254
SWIDTH 720 0
DWIDTH 18 0
BBX 18 50 0 -10
BITMAP
000000
000000
000000
000000
000000
000000
000000
000000
000000
000000
000000
000000
780000
780000
780000
780000
7BF000
7BF000
7FFC00
7FFC00
7C3C00
7C3C00
781E00
781E00
781E00
781E00
781E00
781E00
781E00
781E00
781E00
781E00
781E00
781E00
7C3C00
7C3C00
7FFC00
7FFC00
7BF000
7BF000
780000
780000
780000
780000
780000
780000
780000
780000
780000
780000
ENDCHAR

STARTCHAR ydieresis
ENCODING 255
SWIDTH 720 0
DWIDTH 18 0
BBX 18 50 0 -10
BITMAP
000000
000000
000000
000000
000000
000000
1E1E00
1E1E00
1E1E00
1E1E00
1E1E00
1E1E00
000000
000000
000000
000000
7C1F00
7C1F00
7C1F00
7C1F00
3C1E00
3C1E00
3E3E00
3E3E00
1E3C00
1E3C00
1E3800
1E3800
0E3800
0E3800
077000
077000
077000
077000
07F000
07F000
03E000
03E000
03E000
03E000
03C000
03C000
03C000
03C000
078000
078000
078000
078000
078000
078000
ENDCHAR
ENDFONT
